G04 #@! TF.GenerationSoftware,KiCad,Pcbnew,(6.0.1)*
G04 #@! TF.CreationDate,2022-02-01T23:45:27+05:30*
G04 #@! TF.ProjectId,Business card,42757369-6e65-4737-9320-636172642e6b,rev?*
G04 #@! TF.SameCoordinates,Original*
G04 #@! TF.FileFunction,Legend,Bot*
G04 #@! TF.FilePolarity,Positive*
%FSLAX46Y46*%
G04 Gerber Fmt 4.6, Leading zero omitted, Abs format (unit mm)*
G04 Created by KiCad (PCBNEW (6.0.1)) date 2022-02-01 23:45:27*
%MOMM*%
%LPD*%
G01*
G04 APERTURE LIST*
%ADD10C,0.250000*%
%ADD11C,0.300000*%
%ADD12C,0.150000*%
%ADD13C,0.010000*%
%ADD14C,0.120000*%
G04 APERTURE END LIST*
D10*
X60909523Y-97652380D02*
X60909523Y-96652380D01*
X60480952Y-97652380D02*
X60480952Y-97128571D01*
X60528571Y-97033333D01*
X60623809Y-96985714D01*
X60766666Y-96985714D01*
X60861904Y-97033333D01*
X60909523Y-97080952D01*
X60147619Y-96985714D02*
X59766666Y-96985714D01*
X60004761Y-96652380D02*
X60004761Y-97509523D01*
X59957142Y-97604761D01*
X59861904Y-97652380D01*
X59766666Y-97652380D01*
X59576190Y-96985714D02*
X59195238Y-96985714D01*
X59433333Y-96652380D02*
X59433333Y-97509523D01*
X59385714Y-97604761D01*
X59290476Y-97652380D01*
X59195238Y-97652380D01*
X58861904Y-96985714D02*
X58861904Y-97985714D01*
X58861904Y-97033333D02*
X58766666Y-96985714D01*
X58576190Y-96985714D01*
X58480952Y-97033333D01*
X58433333Y-97080952D01*
X58385714Y-97176190D01*
X58385714Y-97461904D01*
X58433333Y-97557142D01*
X58480952Y-97604761D01*
X58576190Y-97652380D01*
X58766666Y-97652380D01*
X58861904Y-97604761D01*
X57957142Y-97557142D02*
X57909523Y-97604761D01*
X57957142Y-97652380D01*
X58004761Y-97604761D01*
X57957142Y-97557142D01*
X57957142Y-97652380D01*
X57957142Y-97033333D02*
X57909523Y-97080952D01*
X57957142Y-97128571D01*
X58004761Y-97080952D01*
X57957142Y-97033333D01*
X57957142Y-97128571D01*
X56766666Y-96604761D02*
X57623809Y-97890476D01*
X55719047Y-96604761D02*
X56576190Y-97890476D01*
X55480952Y-96985714D02*
X55242857Y-97652380D01*
X55004761Y-96985714D02*
X55242857Y-97652380D01*
X55338095Y-97890476D01*
X55385714Y-97938095D01*
X55480952Y-97985714D01*
X54480952Y-97652380D02*
X54576190Y-97604761D01*
X54623809Y-97557142D01*
X54671428Y-97461904D01*
X54671428Y-97176190D01*
X54623809Y-97080952D01*
X54576190Y-97033333D01*
X54480952Y-96985714D01*
X54338095Y-96985714D01*
X54242857Y-97033333D01*
X54195238Y-97080952D01*
X54147619Y-97176190D01*
X54147619Y-97461904D01*
X54195238Y-97557142D01*
X54242857Y-97604761D01*
X54338095Y-97652380D01*
X54480952Y-97652380D01*
X53290476Y-96985714D02*
X53290476Y-97652380D01*
X53719047Y-96985714D02*
X53719047Y-97509523D01*
X53671428Y-97604761D01*
X53576190Y-97652380D01*
X53433333Y-97652380D01*
X53338095Y-97604761D01*
X53290476Y-97557142D01*
X52957142Y-96985714D02*
X52576190Y-96985714D01*
X52814285Y-96652380D02*
X52814285Y-97509523D01*
X52766666Y-97604761D01*
X52671428Y-97652380D01*
X52576190Y-97652380D01*
X51814285Y-96985714D02*
X51814285Y-97652380D01*
X52242857Y-96985714D02*
X52242857Y-97509523D01*
X52195238Y-97604761D01*
X52100000Y-97652380D01*
X51957142Y-97652380D01*
X51861904Y-97604761D01*
X51814285Y-97557142D01*
X51338095Y-97652380D02*
X51338095Y-96652380D01*
X51338095Y-97033333D02*
X51242857Y-96985714D01*
X51052380Y-96985714D01*
X50957142Y-97033333D01*
X50909523Y-97080952D01*
X50861904Y-97176190D01*
X50861904Y-97461904D01*
X50909523Y-97557142D01*
X50957142Y-97604761D01*
X51052380Y-97652380D01*
X51242857Y-97652380D01*
X51338095Y-97604761D01*
X50052380Y-97604761D02*
X50147619Y-97652380D01*
X50338095Y-97652380D01*
X50433333Y-97604761D01*
X50480952Y-97509523D01*
X50480952Y-97128571D01*
X50433333Y-97033333D01*
X50338095Y-96985714D01*
X50147619Y-96985714D01*
X50052380Y-97033333D01*
X50004761Y-97128571D01*
X50004761Y-97223809D01*
X50480952Y-97319047D01*
X49576190Y-97557142D02*
X49528571Y-97604761D01*
X49576190Y-97652380D01*
X49623809Y-97604761D01*
X49576190Y-97557142D01*
X49576190Y-97652380D01*
X48671428Y-97604761D02*
X48766666Y-97652380D01*
X48957142Y-97652380D01*
X49052380Y-97604761D01*
X49100000Y-97557142D01*
X49147619Y-97461904D01*
X49147619Y-97176190D01*
X49100000Y-97080952D01*
X49052380Y-97033333D01*
X48957142Y-96985714D01*
X48766666Y-96985714D01*
X48671428Y-97033333D01*
X48100000Y-97652380D02*
X48195238Y-97604761D01*
X48242857Y-97557142D01*
X48290476Y-97461904D01*
X48290476Y-97176190D01*
X48242857Y-97080952D01*
X48195238Y-97033333D01*
X48100000Y-96985714D01*
X47957142Y-96985714D01*
X47861904Y-97033333D01*
X47814285Y-97080952D01*
X47766666Y-97176190D01*
X47766666Y-97461904D01*
X47814285Y-97557142D01*
X47861904Y-97604761D01*
X47957142Y-97652380D01*
X48100000Y-97652380D01*
X47338095Y-97652380D02*
X47338095Y-96985714D01*
X47338095Y-97080952D02*
X47290476Y-97033333D01*
X47195238Y-96985714D01*
X47052380Y-96985714D01*
X46957142Y-97033333D01*
X46909523Y-97128571D01*
X46909523Y-97652380D01*
X46909523Y-97128571D02*
X46861904Y-97033333D01*
X46766666Y-96985714D01*
X46623809Y-96985714D01*
X46528571Y-97033333D01*
X46480952Y-97128571D01*
X46480952Y-97652380D01*
X45290476Y-96604761D02*
X46147619Y-97890476D01*
X45052380Y-96985714D02*
X44814285Y-97652380D01*
X44576190Y-96985714D01*
X44195238Y-97652380D02*
X44195238Y-96985714D01*
X44195238Y-96652380D02*
X44242857Y-96700000D01*
X44195238Y-96747619D01*
X44147619Y-96700000D01*
X44195238Y-96652380D01*
X44195238Y-96747619D01*
X43766666Y-97604761D02*
X43671428Y-97652380D01*
X43480952Y-97652380D01*
X43385714Y-97604761D01*
X43338095Y-97509523D01*
X43338095Y-97461904D01*
X43385714Y-97366666D01*
X43480952Y-97319047D01*
X43623809Y-97319047D01*
X43719047Y-97271428D01*
X43766666Y-97176190D01*
X43766666Y-97128571D01*
X43719047Y-97033333D01*
X43623809Y-96985714D01*
X43480952Y-96985714D01*
X43385714Y-97033333D01*
X42909523Y-97652380D02*
X42909523Y-96652380D01*
X42480952Y-97652380D02*
X42480952Y-97128571D01*
X42528571Y-97033333D01*
X42623809Y-96985714D01*
X42766666Y-96985714D01*
X42861904Y-97033333D01*
X42909523Y-97080952D01*
X41576190Y-97652380D02*
X41576190Y-97128571D01*
X41623809Y-97033333D01*
X41719047Y-96985714D01*
X41909523Y-96985714D01*
X42004761Y-97033333D01*
X41576190Y-97604761D02*
X41671428Y-97652380D01*
X41909523Y-97652380D01*
X42004761Y-97604761D01*
X42052380Y-97509523D01*
X42052380Y-97414285D01*
X42004761Y-97319047D01*
X41909523Y-97271428D01*
X41671428Y-97271428D01*
X41576190Y-97223809D01*
X40957142Y-97652380D02*
X41052380Y-97604761D01*
X41100000Y-97509523D01*
X41100000Y-96652380D01*
X40623809Y-97604761D02*
X40528571Y-97652380D01*
X40338095Y-97652380D01*
X40242857Y-97604761D01*
X40195238Y-97509523D01*
X40195238Y-97461904D01*
X40242857Y-97366666D01*
X40338095Y-97319047D01*
X40480952Y-97319047D01*
X40576190Y-97271428D01*
X40623809Y-97176190D01*
X40623809Y-97128571D01*
X40576190Y-97033333D01*
X40480952Y-96985714D01*
X40338095Y-96985714D01*
X40242857Y-97033333D01*
X39623809Y-97652380D02*
X39719047Y-97604761D01*
X39766666Y-97557142D01*
X39814285Y-97461904D01*
X39814285Y-97176190D01*
X39766666Y-97080952D01*
X39719047Y-97033333D01*
X39623809Y-96985714D01*
X39480952Y-96985714D01*
X39385714Y-97033333D01*
X39338095Y-97080952D01*
X39290476Y-97176190D01*
X39290476Y-97461904D01*
X39338095Y-97557142D01*
X39385714Y-97604761D01*
X39480952Y-97652380D01*
X39623809Y-97652380D01*
X38861904Y-96985714D02*
X38861904Y-97652380D01*
X38861904Y-97080952D02*
X38814285Y-97033333D01*
X38719047Y-96985714D01*
X38576190Y-96985714D01*
X38480952Y-97033333D01*
X38433333Y-97128571D01*
X38433333Y-97652380D01*
X37957142Y-97652380D02*
X37957142Y-96985714D01*
X37957142Y-96652380D02*
X38004761Y-96700000D01*
X37957142Y-96747619D01*
X37909523Y-96700000D01*
X37957142Y-96652380D01*
X37957142Y-96747619D01*
X37480952Y-97652380D02*
X37480952Y-96985714D01*
X37480952Y-96652380D02*
X37528571Y-96700000D01*
X37480952Y-96747619D01*
X37433333Y-96700000D01*
X37480952Y-96652380D01*
X37480952Y-96747619D01*
X37004761Y-96985714D02*
X37004761Y-97652380D01*
X37004761Y-97080952D02*
X36957142Y-97033333D01*
X36861904Y-96985714D01*
X36719047Y-96985714D01*
X36623809Y-97033333D01*
X36576190Y-97128571D01*
X36576190Y-97652380D01*
X35671428Y-97652380D02*
X35671428Y-96652380D01*
X35671428Y-97604761D02*
X35766666Y-97652380D01*
X35957142Y-97652380D01*
X36052380Y-97604761D01*
X36100000Y-97557142D01*
X36147619Y-97461904D01*
X36147619Y-97176190D01*
X36100000Y-97080952D01*
X36052380Y-97033333D01*
X35957142Y-96985714D01*
X35766666Y-96985714D01*
X35671428Y-97033333D01*
X35195238Y-97652380D02*
X35195238Y-96985714D01*
X35195238Y-96652380D02*
X35242857Y-96700000D01*
X35195238Y-96747619D01*
X35147619Y-96700000D01*
X35195238Y-96652380D01*
X35195238Y-96747619D01*
X34290476Y-97652380D02*
X34290476Y-97128571D01*
X34338095Y-97033333D01*
X34433333Y-96985714D01*
X34623809Y-96985714D01*
X34719047Y-97033333D01*
X34290476Y-97604761D02*
X34385714Y-97652380D01*
X34623809Y-97652380D01*
X34719047Y-97604761D01*
X34766666Y-97509523D01*
X34766666Y-97414285D01*
X34719047Y-97319047D01*
X34623809Y-97271428D01*
X34385714Y-97271428D01*
X34290476Y-97223809D01*
D11*
X85395000Y-75395000D02*
G75*
G03*
X85395000Y-75395000I-9295000J0D01*
G01*
D12*
G04 #@! TO.C,C1*
X24366666Y-77957142D02*
X24414285Y-78004761D01*
X24557142Y-78052380D01*
X24652380Y-78052380D01*
X24795238Y-78004761D01*
X24890476Y-77909523D01*
X24938095Y-77814285D01*
X24985714Y-77623809D01*
X24985714Y-77480952D01*
X24938095Y-77290476D01*
X24890476Y-77195238D01*
X24795238Y-77100000D01*
X24652380Y-77052380D01*
X24557142Y-77052380D01*
X24414285Y-77100000D01*
X24366666Y-77147619D01*
X23414285Y-78052380D02*
X23985714Y-78052380D01*
X23700000Y-78052380D02*
X23700000Y-77052380D01*
X23795238Y-77195238D01*
X23890476Y-77290476D01*
X23985714Y-77338095D01*
G04 #@! TO.C,R5*
X35866666Y-117352380D02*
X36200000Y-116876190D01*
X36438095Y-117352380D02*
X36438095Y-116352380D01*
X36057142Y-116352380D01*
X35961904Y-116400000D01*
X35914285Y-116447619D01*
X35866666Y-116542857D01*
X35866666Y-116685714D01*
X35914285Y-116780952D01*
X35961904Y-116828571D01*
X36057142Y-116876190D01*
X36438095Y-116876190D01*
X34961904Y-116352380D02*
X35438095Y-116352380D01*
X35485714Y-116828571D01*
X35438095Y-116780952D01*
X35342857Y-116733333D01*
X35104761Y-116733333D01*
X35009523Y-116780952D01*
X34961904Y-116828571D01*
X34914285Y-116923809D01*
X34914285Y-117161904D01*
X34961904Y-117257142D01*
X35009523Y-117304761D01*
X35104761Y-117352380D01*
X35342857Y-117352380D01*
X35438095Y-117304761D01*
X35485714Y-117257142D01*
G04 #@! TO.C,U1*
X79261904Y-45652380D02*
X79261904Y-46461904D01*
X79214285Y-46557142D01*
X79166666Y-46604761D01*
X79071428Y-46652380D01*
X78880952Y-46652380D01*
X78785714Y-46604761D01*
X78738095Y-46557142D01*
X78690476Y-46461904D01*
X78690476Y-45652380D01*
X77690476Y-46652380D02*
X78261904Y-46652380D01*
X77976190Y-46652380D02*
X77976190Y-45652380D01*
X78071428Y-45795238D01*
X78166666Y-45890476D01*
X78261904Y-45938095D01*
G04 #@! TO.C,D1*
X71052380Y-104961904D02*
X70052380Y-104961904D01*
X70052380Y-105200000D01*
X70100000Y-105342857D01*
X70195238Y-105438095D01*
X70290476Y-105485714D01*
X70480952Y-105533333D01*
X70623809Y-105533333D01*
X70814285Y-105485714D01*
X70909523Y-105438095D01*
X71004761Y-105342857D01*
X71052380Y-105200000D01*
X71052380Y-104961904D01*
X71052380Y-106485714D02*
X71052380Y-105914285D01*
X71052380Y-106200000D02*
X70052380Y-106200000D01*
X70195238Y-106104761D01*
X70290476Y-106009523D01*
X70338095Y-105914285D01*
G04 #@! TO.C,R4*
X88152380Y-104855833D02*
X87676190Y-104522500D01*
X88152380Y-104284404D02*
X87152380Y-104284404D01*
X87152380Y-104665357D01*
X87200000Y-104760595D01*
X87247619Y-104808214D01*
X87342857Y-104855833D01*
X87485714Y-104855833D01*
X87580952Y-104808214D01*
X87628571Y-104760595D01*
X87676190Y-104665357D01*
X87676190Y-104284404D01*
X87485714Y-105712976D02*
X88152380Y-105712976D01*
X87104761Y-105474880D02*
X87819047Y-105236785D01*
X87819047Y-105855833D01*
G04 #@! TO.C,D4*
X146497970Y-52058206D02*
X145790863Y-52765312D01*
X145959222Y-52933671D01*
X146093909Y-53001015D01*
X146228596Y-53001015D01*
X146329611Y-52967343D01*
X146497970Y-52866328D01*
X146598985Y-52765312D01*
X146700001Y-52596954D01*
X146733672Y-52495938D01*
X146733672Y-52361251D01*
X146666329Y-52226564D01*
X146497970Y-52058206D01*
X147036718Y-53539763D02*
X147508123Y-53068358D01*
X146598985Y-53640778D02*
X146935703Y-52967343D01*
X147373436Y-53405076D01*
G04 #@! TO.C,D3*
X133447059Y-66107296D02*
X132739952Y-66814402D01*
X132908311Y-66982761D01*
X133042998Y-67050105D01*
X133177685Y-67050105D01*
X133278700Y-67016433D01*
X133447059Y-66915418D01*
X133548074Y-66814402D01*
X133649090Y-66646044D01*
X133682761Y-66545028D01*
X133682761Y-66410341D01*
X133615418Y-66275654D01*
X133447059Y-66107296D01*
X133379715Y-67454166D02*
X133817448Y-67891899D01*
X133851120Y-67386822D01*
X133952135Y-67487838D01*
X134053151Y-67521509D01*
X134120494Y-67521509D01*
X134221509Y-67487838D01*
X134389868Y-67319479D01*
X134423540Y-67218464D01*
X134423540Y-67151120D01*
X134389868Y-67050105D01*
X134187838Y-66848074D01*
X134086822Y-66814402D01*
X134019479Y-66814402D01*
G04 #@! TO.C,D2*
X82552380Y-104861904D02*
X81552380Y-104861904D01*
X81552380Y-105100000D01*
X81600000Y-105242857D01*
X81695238Y-105338095D01*
X81790476Y-105385714D01*
X81980952Y-105433333D01*
X82123809Y-105433333D01*
X82314285Y-105385714D01*
X82409523Y-105338095D01*
X82504761Y-105242857D01*
X82552380Y-105100000D01*
X82552380Y-104861904D01*
X81647619Y-105814285D02*
X81600000Y-105861904D01*
X81552380Y-105957142D01*
X81552380Y-106195238D01*
X81600000Y-106290476D01*
X81647619Y-106338095D01*
X81742857Y-106385714D01*
X81838095Y-106385714D01*
X81980952Y-106338095D01*
X82552380Y-105766666D01*
X82552380Y-106385714D01*
G04 #@! TO.C,R3*
X73852380Y-105455833D02*
X73376190Y-105122500D01*
X73852380Y-104884404D02*
X72852380Y-104884404D01*
X72852380Y-105265357D01*
X72900000Y-105360595D01*
X72947619Y-105408214D01*
X73042857Y-105455833D01*
X73185714Y-105455833D01*
X73280952Y-105408214D01*
X73328571Y-105360595D01*
X73376190Y-105265357D01*
X73376190Y-104884404D01*
X72852380Y-105789166D02*
X72852380Y-106408214D01*
X73233333Y-106074880D01*
X73233333Y-106217738D01*
X73280952Y-106312976D01*
X73328571Y-106360595D01*
X73423809Y-106408214D01*
X73661904Y-106408214D01*
X73757142Y-106360595D01*
X73804761Y-106312976D01*
X73852380Y-106217738D01*
X73852380Y-105932023D01*
X73804761Y-105836785D01*
X73757142Y-105789166D01*
G04 #@! TO.C,D5*
X130597969Y-66558206D02*
X129890862Y-67265312D01*
X130059221Y-67433671D01*
X130193908Y-67501015D01*
X130328595Y-67501015D01*
X130429610Y-67467343D01*
X130597969Y-67366328D01*
X130698984Y-67265312D01*
X130800000Y-67096954D01*
X130833671Y-66995938D01*
X130833671Y-66861251D01*
X130766328Y-66726564D01*
X130597969Y-66558206D01*
X130934687Y-68309137D02*
X130597969Y-67972419D01*
X130901015Y-67602030D01*
X130901015Y-67669374D01*
X130934687Y-67770389D01*
X131103045Y-67938748D01*
X131204061Y-67972419D01*
X131271404Y-67972419D01*
X131372419Y-67938748D01*
X131540778Y-67770389D01*
X131574450Y-67669374D01*
X131574450Y-67602030D01*
X131540778Y-67501015D01*
X131372419Y-67332656D01*
X131271404Y-67298984D01*
X131204061Y-67298984D01*
G04 #@! TO.C,R1*
X39666666Y-118052380D02*
X40000000Y-117576190D01*
X40238095Y-118052380D02*
X40238095Y-117052380D01*
X39857142Y-117052380D01*
X39761904Y-117100000D01*
X39714285Y-117147619D01*
X39666666Y-117242857D01*
X39666666Y-117385714D01*
X39714285Y-117480952D01*
X39761904Y-117528571D01*
X39857142Y-117576190D01*
X40238095Y-117576190D01*
X38714285Y-118052380D02*
X39285714Y-118052380D01*
X39000000Y-118052380D02*
X39000000Y-117052380D01*
X39095238Y-117195238D01*
X39190476Y-117290476D01*
X39285714Y-117338095D01*
G04 #@! TO.C,R2*
X42066666Y-118752380D02*
X42400000Y-118276190D01*
X42638095Y-118752380D02*
X42638095Y-117752380D01*
X42257142Y-117752380D01*
X42161904Y-117800000D01*
X42114285Y-117847619D01*
X42066666Y-117942857D01*
X42066666Y-118085714D01*
X42114285Y-118180952D01*
X42161904Y-118228571D01*
X42257142Y-118276190D01*
X42638095Y-118276190D01*
X41685714Y-117847619D02*
X41638095Y-117800000D01*
X41542857Y-117752380D01*
X41304761Y-117752380D01*
X41209523Y-117800000D01*
X41161904Y-117847619D01*
X41114285Y-117942857D01*
X41114285Y-118038095D01*
X41161904Y-118180952D01*
X41733333Y-118752380D01*
X41114285Y-118752380D01*
G04 #@! TO.C,C2*
X74666666Y-44157142D02*
X74714285Y-44204761D01*
X74857142Y-44252380D01*
X74952380Y-44252380D01*
X75095238Y-44204761D01*
X75190476Y-44109523D01*
X75238095Y-44014285D01*
X75285714Y-43823809D01*
X75285714Y-43680952D01*
X75238095Y-43490476D01*
X75190476Y-43395238D01*
X75095238Y-43300000D01*
X74952380Y-43252380D01*
X74857142Y-43252380D01*
X74714285Y-43300000D01*
X74666666Y-43347619D01*
X74285714Y-43347619D02*
X74238095Y-43300000D01*
X74142857Y-43252380D01*
X73904761Y-43252380D01*
X73809523Y-43300000D01*
X73761904Y-43347619D01*
X73714285Y-43442857D01*
X73714285Y-43538095D01*
X73761904Y-43680952D01*
X74333333Y-44252380D01*
X73714285Y-44252380D01*
D13*
G04 #@! TO.C,REF\u002A\u002A*
X34920167Y-57558663D02*
X34917952Y-57596850D01*
X34917952Y-57596850D02*
X34916216Y-57654886D01*
X34916216Y-57654886D02*
X34915101Y-57728180D01*
X34915101Y-57728180D02*
X34914743Y-57805055D01*
X34914743Y-57805055D02*
X34914743Y-58065196D01*
X34914743Y-58065196D02*
X34960674Y-58111127D01*
X34960674Y-58111127D02*
X34992325Y-58139429D01*
X34992325Y-58139429D02*
X35020110Y-58150893D01*
X35020110Y-58150893D02*
X35058085Y-58150168D01*
X35058085Y-58150168D02*
X35073160Y-58148321D01*
X35073160Y-58148321D02*
X35120274Y-58142948D01*
X35120274Y-58142948D02*
X35159244Y-58139869D01*
X35159244Y-58139869D02*
X35168743Y-58139585D01*
X35168743Y-58139585D02*
X35200767Y-58141445D01*
X35200767Y-58141445D02*
X35246568Y-58146114D01*
X35246568Y-58146114D02*
X35264326Y-58148321D01*
X35264326Y-58148321D02*
X35307943Y-58151735D01*
X35307943Y-58151735D02*
X35337255Y-58144320D01*
X35337255Y-58144320D02*
X35366320Y-58121427D01*
X35366320Y-58121427D02*
X35376812Y-58111127D01*
X35376812Y-58111127D02*
X35422743Y-58065196D01*
X35422743Y-58065196D02*
X35422743Y-57578602D01*
X35422743Y-57578602D02*
X35385774Y-57561758D01*
X35385774Y-57561758D02*
X35353941Y-57549282D01*
X35353941Y-57549282D02*
X35335317Y-57544914D01*
X35335317Y-57544914D02*
X35330542Y-57558718D01*
X35330542Y-57558718D02*
X35326079Y-57597286D01*
X35326079Y-57597286D02*
X35322225Y-57656356D01*
X35322225Y-57656356D02*
X35319278Y-57731663D01*
X35319278Y-57731663D02*
X35317857Y-57795286D01*
X35317857Y-57795286D02*
X35313886Y-58045657D01*
X35313886Y-58045657D02*
X35279241Y-58050556D01*
X35279241Y-58050556D02*
X35247732Y-58047131D01*
X35247732Y-58047131D02*
X35232292Y-58036041D01*
X35232292Y-58036041D02*
X35227977Y-58015308D01*
X35227977Y-58015308D02*
X35224292Y-57971145D01*
X35224292Y-57971145D02*
X35221531Y-57909146D01*
X35221531Y-57909146D02*
X35219988Y-57834909D01*
X35219988Y-57834909D02*
X35219765Y-57796706D01*
X35219765Y-57796706D02*
X35219543Y-57576783D01*
X35219543Y-57576783D02*
X35173834Y-57560849D01*
X35173834Y-57560849D02*
X35141482Y-57550015D01*
X35141482Y-57550015D02*
X35123885Y-57544962D01*
X35123885Y-57544962D02*
X35123377Y-57544914D01*
X35123377Y-57544914D02*
X35121612Y-57558648D01*
X35121612Y-57558648D02*
X35119671Y-57596730D01*
X35119671Y-57596730D02*
X35117718Y-57654482D01*
X35117718Y-57654482D02*
X35115916Y-57727227D01*
X35115916Y-57727227D02*
X35114657Y-57795286D01*
X35114657Y-57795286D02*
X35110686Y-58045657D01*
X35110686Y-58045657D02*
X35023600Y-58045657D01*
X35023600Y-58045657D02*
X35019604Y-57817240D01*
X35019604Y-57817240D02*
X35015608Y-57588822D01*
X35015608Y-57588822D02*
X34973153Y-57566868D01*
X34973153Y-57566868D02*
X34941808Y-57551793D01*
X34941808Y-57551793D02*
X34923256Y-57544951D01*
X34923256Y-57544951D02*
X34922721Y-57544914D01*
X34922721Y-57544914D02*
X34920167Y-57558663D01*
X34920167Y-57558663D02*
X34920167Y-57558663D01*
G36*
X35353941Y-57549282D02*
G01*
X35385774Y-57561758D01*
X35422743Y-57578602D01*
X35422743Y-58065196D01*
X35376812Y-58111127D01*
X35366320Y-58121427D01*
X35337255Y-58144320D01*
X35307943Y-58151735D01*
X35264326Y-58148321D01*
X35246568Y-58146114D01*
X35200767Y-58141445D01*
X35168743Y-58139585D01*
X35159244Y-58139869D01*
X35120274Y-58142948D01*
X35073160Y-58148321D01*
X35058085Y-58150168D01*
X35020110Y-58150893D01*
X34992325Y-58139429D01*
X34960674Y-58111127D01*
X34914743Y-58065196D01*
X34914743Y-57805055D01*
X34915101Y-57728180D01*
X34916216Y-57654886D01*
X34917952Y-57596850D01*
X34920167Y-57558663D01*
X34922721Y-57544914D01*
X34923256Y-57544951D01*
X34941808Y-57551793D01*
X34973153Y-57566868D01*
X35015608Y-57588822D01*
X35019604Y-57817240D01*
X35023600Y-58045657D01*
X35110686Y-58045657D01*
X35114657Y-57795286D01*
X35115916Y-57727227D01*
X35117718Y-57654482D01*
X35119671Y-57596730D01*
X35121612Y-57558648D01*
X35123377Y-57544914D01*
X35123885Y-57544962D01*
X35141482Y-57550015D01*
X35173834Y-57560849D01*
X35219543Y-57576783D01*
X35219765Y-57796706D01*
X35219988Y-57834909D01*
X35221531Y-57909146D01*
X35224292Y-57971145D01*
X35227977Y-58015308D01*
X35232292Y-58036041D01*
X35247732Y-58047131D01*
X35279241Y-58050556D01*
X35313886Y-58045657D01*
X35317857Y-57795286D01*
X35319278Y-57731663D01*
X35322225Y-57656356D01*
X35326079Y-57597286D01*
X35330542Y-57558718D01*
X35335317Y-57544914D01*
X35353941Y-57549282D01*
G37*
X35353941Y-57549282D02*
X35385774Y-57561758D01*
X35422743Y-57578602D01*
X35422743Y-58065196D01*
X35376812Y-58111127D01*
X35366320Y-58121427D01*
X35337255Y-58144320D01*
X35307943Y-58151735D01*
X35264326Y-58148321D01*
X35246568Y-58146114D01*
X35200767Y-58141445D01*
X35168743Y-58139585D01*
X35159244Y-58139869D01*
X35120274Y-58142948D01*
X35073160Y-58148321D01*
X35058085Y-58150168D01*
X35020110Y-58150893D01*
X34992325Y-58139429D01*
X34960674Y-58111127D01*
X34914743Y-58065196D01*
X34914743Y-57805055D01*
X34915101Y-57728180D01*
X34916216Y-57654886D01*
X34917952Y-57596850D01*
X34920167Y-57558663D01*
X34922721Y-57544914D01*
X34923256Y-57544951D01*
X34941808Y-57551793D01*
X34973153Y-57566868D01*
X35015608Y-57588822D01*
X35019604Y-57817240D01*
X35023600Y-58045657D01*
X35110686Y-58045657D01*
X35114657Y-57795286D01*
X35115916Y-57727227D01*
X35117718Y-57654482D01*
X35119671Y-57596730D01*
X35121612Y-57558648D01*
X35123377Y-57544914D01*
X35123885Y-57544962D01*
X35141482Y-57550015D01*
X35173834Y-57560849D01*
X35219543Y-57576783D01*
X35219765Y-57796706D01*
X35219988Y-57834909D01*
X35221531Y-57909146D01*
X35224292Y-57971145D01*
X35227977Y-58015308D01*
X35232292Y-58036041D01*
X35247732Y-58047131D01*
X35279241Y-58050556D01*
X35313886Y-58045657D01*
X35317857Y-57795286D01*
X35319278Y-57731663D01*
X35322225Y-57656356D01*
X35326079Y-57597286D01*
X35330542Y-57558718D01*
X35335317Y-57544914D01*
X35353941Y-57549282D01*
X39658885Y-57521962D02*
X39590855Y-57557733D01*
X39590855Y-57557733D02*
X39540649Y-57615301D01*
X39540649Y-57615301D02*
X39522815Y-57652312D01*
X39522815Y-57652312D02*
X39508937Y-57707882D01*
X39508937Y-57707882D02*
X39501833Y-57778096D01*
X39501833Y-57778096D02*
X39501160Y-57854727D01*
X39501160Y-57854727D02*
X39506573Y-57929552D01*
X39506573Y-57929552D02*
X39517730Y-57994342D01*
X39517730Y-57994342D02*
X39534286Y-58040873D01*
X39534286Y-58040873D02*
X39539374Y-58048887D01*
X39539374Y-58048887D02*
X39599645Y-58108707D01*
X39599645Y-58108707D02*
X39671231Y-58144535D01*
X39671231Y-58144535D02*
X39748908Y-58155020D01*
X39748908Y-58155020D02*
X39827452Y-58138810D01*
X39827452Y-58138810D02*
X39849311Y-58129092D01*
X39849311Y-58129092D02*
X39891878Y-58099143D01*
X39891878Y-58099143D02*
X39929237Y-58059433D01*
X39929237Y-58059433D02*
X39932768Y-58054397D01*
X39932768Y-58054397D02*
X39947119Y-58030124D01*
X39947119Y-58030124D02*
X39956606Y-58004178D01*
X39956606Y-58004178D02*
X39962210Y-57970022D01*
X39962210Y-57970022D02*
X39964914Y-57921119D01*
X39964914Y-57921119D02*
X39965701Y-57850935D01*
X39965701Y-57850935D02*
X39965714Y-57835200D01*
X39965714Y-57835200D02*
X39965678Y-57830192D01*
X39965678Y-57830192D02*
X39820571Y-57830192D01*
X39820571Y-57830192D02*
X39819727Y-57896430D01*
X39819727Y-57896430D02*
X39816404Y-57940386D01*
X39816404Y-57940386D02*
X39809417Y-57968779D01*
X39809417Y-57968779D02*
X39797584Y-57988325D01*
X39797584Y-57988325D02*
X39791543Y-57994857D01*
X39791543Y-57994857D02*
X39756814Y-58019680D01*
X39756814Y-58019680D02*
X39723097Y-58018548D01*
X39723097Y-58018548D02*
X39689005Y-57997016D01*
X39689005Y-57997016D02*
X39668671Y-57974029D01*
X39668671Y-57974029D02*
X39656629Y-57940478D01*
X39656629Y-57940478D02*
X39649866Y-57887569D01*
X39649866Y-57887569D02*
X39649402Y-57881399D01*
X39649402Y-57881399D02*
X39648248Y-57785513D01*
X39648248Y-57785513D02*
X39660312Y-57714299D01*
X39660312Y-57714299D02*
X39685430Y-57668194D01*
X39685430Y-57668194D02*
X39723440Y-57647635D01*
X39723440Y-57647635D02*
X39737008Y-57646514D01*
X39737008Y-57646514D02*
X39772636Y-57652152D01*
X39772636Y-57652152D02*
X39797006Y-57671686D01*
X39797006Y-57671686D02*
X39811907Y-57709042D01*
X39811907Y-57709042D02*
X39819125Y-57768150D01*
X39819125Y-57768150D02*
X39820571Y-57830192D01*
X39820571Y-57830192D02*
X39965678Y-57830192D01*
X39965678Y-57830192D02*
X39965174Y-57760413D01*
X39965174Y-57760413D02*
X39962904Y-57708159D01*
X39962904Y-57708159D02*
X39957932Y-57671949D01*
X39957932Y-57671949D02*
X39949287Y-57645299D01*
X39949287Y-57645299D02*
X39935995Y-57621722D01*
X39935995Y-57621722D02*
X39933057Y-57617338D01*
X39933057Y-57617338D02*
X39883687Y-57558249D01*
X39883687Y-57558249D02*
X39829891Y-57523947D01*
X39829891Y-57523947D02*
X39764398Y-57510331D01*
X39764398Y-57510331D02*
X39742158Y-57509665D01*
X39742158Y-57509665D02*
X39658885Y-57521962D01*
X39658885Y-57521962D02*
X39658885Y-57521962D01*
G36*
X39965701Y-57850935D02*
G01*
X39964914Y-57921119D01*
X39962210Y-57970022D01*
X39956606Y-58004178D01*
X39947119Y-58030124D01*
X39932768Y-58054397D01*
X39929237Y-58059433D01*
X39891878Y-58099143D01*
X39849311Y-58129092D01*
X39827452Y-58138810D01*
X39748908Y-58155020D01*
X39671231Y-58144535D01*
X39599645Y-58108707D01*
X39539374Y-58048887D01*
X39534286Y-58040873D01*
X39517730Y-57994342D01*
X39506573Y-57929552D01*
X39501160Y-57854727D01*
X39501768Y-57785513D01*
X39648248Y-57785513D01*
X39649402Y-57881399D01*
X39649866Y-57887569D01*
X39656629Y-57940478D01*
X39668671Y-57974029D01*
X39689005Y-57997016D01*
X39723097Y-58018548D01*
X39756814Y-58019680D01*
X39791543Y-57994857D01*
X39797584Y-57988325D01*
X39809417Y-57968779D01*
X39816404Y-57940386D01*
X39819727Y-57896430D01*
X39820571Y-57830192D01*
X39819125Y-57768150D01*
X39811907Y-57709042D01*
X39797006Y-57671686D01*
X39772636Y-57652152D01*
X39737008Y-57646514D01*
X39723440Y-57647635D01*
X39685430Y-57668194D01*
X39660312Y-57714299D01*
X39648248Y-57785513D01*
X39501768Y-57785513D01*
X39501833Y-57778096D01*
X39508937Y-57707882D01*
X39522815Y-57652312D01*
X39540649Y-57615301D01*
X39590855Y-57557733D01*
X39658885Y-57521962D01*
X39742158Y-57509665D01*
X39764398Y-57510331D01*
X39829891Y-57523947D01*
X39883687Y-57558249D01*
X39933057Y-57617338D01*
X39935995Y-57621722D01*
X39949287Y-57645299D01*
X39957932Y-57671949D01*
X39962904Y-57708159D01*
X39965174Y-57760413D01*
X39965678Y-57830192D01*
X39965714Y-57835200D01*
X39965701Y-57850935D01*
G37*
X39965701Y-57850935D02*
X39964914Y-57921119D01*
X39962210Y-57970022D01*
X39956606Y-58004178D01*
X39947119Y-58030124D01*
X39932768Y-58054397D01*
X39929237Y-58059433D01*
X39891878Y-58099143D01*
X39849311Y-58129092D01*
X39827452Y-58138810D01*
X39748908Y-58155020D01*
X39671231Y-58144535D01*
X39599645Y-58108707D01*
X39539374Y-58048887D01*
X39534286Y-58040873D01*
X39517730Y-57994342D01*
X39506573Y-57929552D01*
X39501160Y-57854727D01*
X39501768Y-57785513D01*
X39648248Y-57785513D01*
X39649402Y-57881399D01*
X39649866Y-57887569D01*
X39656629Y-57940478D01*
X39668671Y-57974029D01*
X39689005Y-57997016D01*
X39723097Y-58018548D01*
X39756814Y-58019680D01*
X39791543Y-57994857D01*
X39797584Y-57988325D01*
X39809417Y-57968779D01*
X39816404Y-57940386D01*
X39819727Y-57896430D01*
X39820571Y-57830192D01*
X39819125Y-57768150D01*
X39811907Y-57709042D01*
X39797006Y-57671686D01*
X39772636Y-57652152D01*
X39737008Y-57646514D01*
X39723440Y-57647635D01*
X39685430Y-57668194D01*
X39660312Y-57714299D01*
X39648248Y-57785513D01*
X39501768Y-57785513D01*
X39501833Y-57778096D01*
X39508937Y-57707882D01*
X39522815Y-57652312D01*
X39540649Y-57615301D01*
X39590855Y-57557733D01*
X39658885Y-57521962D01*
X39742158Y-57509665D01*
X39764398Y-57510331D01*
X39829891Y-57523947D01*
X39883687Y-57558249D01*
X39933057Y-57617338D01*
X39935995Y-57621722D01*
X39949287Y-57645299D01*
X39957932Y-57671949D01*
X39962904Y-57708159D01*
X39965174Y-57760413D01*
X39965678Y-57830192D01*
X39965714Y-57835200D01*
X39965701Y-57850935D01*
X33546405Y-57566966D02*
X33488979Y-57604497D01*
X33488979Y-57604497D02*
X33461281Y-57638096D01*
X33461281Y-57638096D02*
X33439338Y-57699064D01*
X33439338Y-57699064D02*
X33437595Y-57747308D01*
X33437595Y-57747308D02*
X33441543Y-57811816D01*
X33441543Y-57811816D02*
X33590314Y-57876934D01*
X33590314Y-57876934D02*
X33662651Y-57910202D01*
X33662651Y-57910202D02*
X33709916Y-57936964D01*
X33709916Y-57936964D02*
X33734493Y-57960144D01*
X33734493Y-57960144D02*
X33738763Y-57982667D01*
X33738763Y-57982667D02*
X33725111Y-58007455D01*
X33725111Y-58007455D02*
X33710057Y-58023886D01*
X33710057Y-58023886D02*
X33666254Y-58050235D01*
X33666254Y-58050235D02*
X33618611Y-58052081D01*
X33618611Y-58052081D02*
X33574855Y-58031546D01*
X33574855Y-58031546D02*
X33542711Y-57990752D01*
X33542711Y-57990752D02*
X33536962Y-57976347D01*
X33536962Y-57976347D02*
X33509424Y-57931356D01*
X33509424Y-57931356D02*
X33477742Y-57912182D01*
X33477742Y-57912182D02*
X33434286Y-57895779D01*
X33434286Y-57895779D02*
X33434286Y-57957966D01*
X33434286Y-57957966D02*
X33438128Y-58000283D01*
X33438128Y-58000283D02*
X33453177Y-58035969D01*
X33453177Y-58035969D02*
X33484720Y-58076943D01*
X33484720Y-58076943D02*
X33489408Y-58082267D01*
X33489408Y-58082267D02*
X33524494Y-58118720D01*
X33524494Y-58118720D02*
X33554653Y-58138283D01*
X33554653Y-58138283D02*
X33592385Y-58147283D01*
X33592385Y-58147283D02*
X33623665Y-58150230D01*
X33623665Y-58150230D02*
X33679615Y-58150965D01*
X33679615Y-58150965D02*
X33719445Y-58141660D01*
X33719445Y-58141660D02*
X33744292Y-58127846D01*
X33744292Y-58127846D02*
X33783344Y-58097467D01*
X33783344Y-58097467D02*
X33810375Y-58064613D01*
X33810375Y-58064613D02*
X33827483Y-58023294D01*
X33827483Y-58023294D02*
X33836762Y-57967521D01*
X33836762Y-57967521D02*
X33840307Y-57891305D01*
X33840307Y-57891305D02*
X33840590Y-57852622D01*
X33840590Y-57852622D02*
X33839628Y-57806247D01*
X33839628Y-57806247D02*
X33751993Y-57806247D01*
X33751993Y-57806247D02*
X33750977Y-57831126D01*
X33750977Y-57831126D02*
X33748444Y-57835200D01*
X33748444Y-57835200D02*
X33731726Y-57829665D01*
X33731726Y-57829665D02*
X33695751Y-57815017D01*
X33695751Y-57815017D02*
X33647669Y-57794190D01*
X33647669Y-57794190D02*
X33637614Y-57789714D01*
X33637614Y-57789714D02*
X33576848Y-57758814D01*
X33576848Y-57758814D02*
X33543368Y-57731657D01*
X33543368Y-57731657D02*
X33536010Y-57706220D01*
X33536010Y-57706220D02*
X33553609Y-57680481D01*
X33553609Y-57680481D02*
X33568144Y-57669109D01*
X33568144Y-57669109D02*
X33620590Y-57646364D01*
X33620590Y-57646364D02*
X33669678Y-57650122D01*
X33669678Y-57650122D02*
X33710773Y-57677884D01*
X33710773Y-57677884D02*
X33739242Y-57727152D01*
X33739242Y-57727152D02*
X33748369Y-57766257D01*
X33748369Y-57766257D02*
X33751993Y-57806247D01*
X33751993Y-57806247D02*
X33839628Y-57806247D01*
X33839628Y-57806247D02*
X33838715Y-57762249D01*
X33838715Y-57762249D02*
X33831804Y-57695384D01*
X33831804Y-57695384D02*
X33818116Y-57646695D01*
X33818116Y-57646695D02*
X33795904Y-57610849D01*
X33795904Y-57610849D02*
X33763426Y-57582513D01*
X33763426Y-57582513D02*
X33749267Y-57573355D01*
X33749267Y-57573355D02*
X33684947Y-57549507D01*
X33684947Y-57549507D02*
X33614527Y-57548006D01*
X33614527Y-57548006D02*
X33546405Y-57566966D01*
X33546405Y-57566966D02*
X33546405Y-57566966D01*
G36*
X33840307Y-57891305D02*
G01*
X33836762Y-57967521D01*
X33827483Y-58023294D01*
X33810375Y-58064613D01*
X33783344Y-58097467D01*
X33744292Y-58127846D01*
X33719445Y-58141660D01*
X33679615Y-58150965D01*
X33623665Y-58150230D01*
X33592385Y-58147283D01*
X33554653Y-58138283D01*
X33524494Y-58118720D01*
X33489408Y-58082267D01*
X33484720Y-58076943D01*
X33453177Y-58035969D01*
X33438128Y-58000283D01*
X33434286Y-57957966D01*
X33434286Y-57895779D01*
X33477742Y-57912182D01*
X33509424Y-57931356D01*
X33536962Y-57976347D01*
X33542711Y-57990752D01*
X33574855Y-58031546D01*
X33618611Y-58052081D01*
X33666254Y-58050235D01*
X33710057Y-58023886D01*
X33725111Y-58007455D01*
X33738763Y-57982667D01*
X33734493Y-57960144D01*
X33709916Y-57936964D01*
X33662651Y-57910202D01*
X33590314Y-57876934D01*
X33441543Y-57811816D01*
X33437595Y-57747308D01*
X33439079Y-57706220D01*
X33536010Y-57706220D01*
X33543368Y-57731657D01*
X33576848Y-57758814D01*
X33637614Y-57789714D01*
X33647669Y-57794190D01*
X33695751Y-57815017D01*
X33731726Y-57829665D01*
X33748444Y-57835200D01*
X33750977Y-57831126D01*
X33751993Y-57806247D01*
X33748369Y-57766257D01*
X33739242Y-57727152D01*
X33710773Y-57677884D01*
X33669678Y-57650122D01*
X33620590Y-57646364D01*
X33568144Y-57669109D01*
X33553609Y-57680481D01*
X33536010Y-57706220D01*
X33439079Y-57706220D01*
X33439338Y-57699064D01*
X33461281Y-57638096D01*
X33488979Y-57604497D01*
X33546405Y-57566966D01*
X33614527Y-57548006D01*
X33684947Y-57549507D01*
X33749267Y-57573355D01*
X33763426Y-57582513D01*
X33795904Y-57610849D01*
X33818116Y-57646695D01*
X33831804Y-57695384D01*
X33838715Y-57762249D01*
X33839628Y-57806247D01*
X33840590Y-57852622D01*
X33840307Y-57891305D01*
G37*
X33840307Y-57891305D02*
X33836762Y-57967521D01*
X33827483Y-58023294D01*
X33810375Y-58064613D01*
X33783344Y-58097467D01*
X33744292Y-58127846D01*
X33719445Y-58141660D01*
X33679615Y-58150965D01*
X33623665Y-58150230D01*
X33592385Y-58147283D01*
X33554653Y-58138283D01*
X33524494Y-58118720D01*
X33489408Y-58082267D01*
X33484720Y-58076943D01*
X33453177Y-58035969D01*
X33438128Y-58000283D01*
X33434286Y-57957966D01*
X33434286Y-57895779D01*
X33477742Y-57912182D01*
X33509424Y-57931356D01*
X33536962Y-57976347D01*
X33542711Y-57990752D01*
X33574855Y-58031546D01*
X33618611Y-58052081D01*
X33666254Y-58050235D01*
X33710057Y-58023886D01*
X33725111Y-58007455D01*
X33738763Y-57982667D01*
X33734493Y-57960144D01*
X33709916Y-57936964D01*
X33662651Y-57910202D01*
X33590314Y-57876934D01*
X33441543Y-57811816D01*
X33437595Y-57747308D01*
X33439079Y-57706220D01*
X33536010Y-57706220D01*
X33543368Y-57731657D01*
X33576848Y-57758814D01*
X33637614Y-57789714D01*
X33647669Y-57794190D01*
X33695751Y-57815017D01*
X33731726Y-57829665D01*
X33748444Y-57835200D01*
X33750977Y-57831126D01*
X33751993Y-57806247D01*
X33748369Y-57766257D01*
X33739242Y-57727152D01*
X33710773Y-57677884D01*
X33669678Y-57650122D01*
X33620590Y-57646364D01*
X33568144Y-57669109D01*
X33553609Y-57680481D01*
X33536010Y-57706220D01*
X33439079Y-57706220D01*
X33439338Y-57699064D01*
X33461281Y-57638096D01*
X33488979Y-57604497D01*
X33546405Y-57566966D01*
X33614527Y-57548006D01*
X33684947Y-57549507D01*
X33749267Y-57573355D01*
X33763426Y-57582513D01*
X33795904Y-57610849D01*
X33818116Y-57646695D01*
X33831804Y-57695384D01*
X33838715Y-57762249D01*
X33839628Y-57806247D01*
X33840590Y-57852622D01*
X33840307Y-57891305D01*
X37983907Y-57527780D02*
X37937328Y-57554723D01*
X37937328Y-57554723D02*
X37904943Y-57581466D01*
X37904943Y-57581466D02*
X37881258Y-57609484D01*
X37881258Y-57609484D02*
X37864941Y-57643748D01*
X37864941Y-57643748D02*
X37854661Y-57689227D01*
X37854661Y-57689227D02*
X37849086Y-57750892D01*
X37849086Y-57750892D02*
X37846884Y-57833711D01*
X37846884Y-57833711D02*
X37846629Y-57893246D01*
X37846629Y-57893246D02*
X37846629Y-58112391D01*
X37846629Y-58112391D02*
X37908314Y-58140044D01*
X37908314Y-58140044D02*
X37970000Y-58167697D01*
X37970000Y-58167697D02*
X37977257Y-57927670D01*
X37977257Y-57927670D02*
X37980256Y-57838028D01*
X37980256Y-57838028D02*
X37983402Y-57772962D01*
X37983402Y-57772962D02*
X37987299Y-57728026D01*
X37987299Y-57728026D02*
X37992553Y-57698770D01*
X37992553Y-57698770D02*
X37999769Y-57680748D01*
X37999769Y-57680748D02*
X38009550Y-57669511D01*
X38009550Y-57669511D02*
X38012688Y-57667079D01*
X38012688Y-57667079D02*
X38060239Y-57648083D01*
X38060239Y-57648083D02*
X38108303Y-57655600D01*
X38108303Y-57655600D02*
X38136914Y-57675543D01*
X38136914Y-57675543D02*
X38148553Y-57689675D01*
X38148553Y-57689675D02*
X38156609Y-57708220D01*
X38156609Y-57708220D02*
X38161729Y-57736334D01*
X38161729Y-57736334D02*
X38164559Y-57779173D01*
X38164559Y-57779173D02*
X38165744Y-57841895D01*
X38165744Y-57841895D02*
X38165943Y-57907261D01*
X38165943Y-57907261D02*
X38165982Y-57989268D01*
X38165982Y-57989268D02*
X38167386Y-58047316D01*
X38167386Y-58047316D02*
X38172086Y-58086465D01*
X38172086Y-58086465D02*
X38182013Y-58111780D01*
X38182013Y-58111780D02*
X38199097Y-58128323D01*
X38199097Y-58128323D02*
X38225268Y-58141156D01*
X38225268Y-58141156D02*
X38260225Y-58154491D01*
X38260225Y-58154491D02*
X38298404Y-58169007D01*
X38298404Y-58169007D02*
X38293859Y-57911389D01*
X38293859Y-57911389D02*
X38292029Y-57818519D01*
X38292029Y-57818519D02*
X38289888Y-57749889D01*
X38289888Y-57749889D02*
X38286819Y-57700711D01*
X38286819Y-57700711D02*
X38282206Y-57666198D01*
X38282206Y-57666198D02*
X38275432Y-57641562D01*
X38275432Y-57641562D02*
X38265881Y-57622016D01*
X38265881Y-57622016D02*
X38254366Y-57604770D01*
X38254366Y-57604770D02*
X38198810Y-57549680D01*
X38198810Y-57549680D02*
X38131020Y-57517822D01*
X38131020Y-57517822D02*
X38057287Y-57510191D01*
X38057287Y-57510191D02*
X37983907Y-57527780D01*
X37983907Y-57527780D02*
X37983907Y-57527780D01*
G36*
X38131020Y-57517822D02*
G01*
X38198810Y-57549680D01*
X38254366Y-57604770D01*
X38265881Y-57622016D01*
X38275432Y-57641562D01*
X38282206Y-57666198D01*
X38286819Y-57700711D01*
X38289888Y-57749889D01*
X38292029Y-57818519D01*
X38293859Y-57911389D01*
X38298404Y-58169007D01*
X38260225Y-58154491D01*
X38225268Y-58141156D01*
X38199097Y-58128323D01*
X38182013Y-58111780D01*
X38172086Y-58086465D01*
X38167386Y-58047316D01*
X38165982Y-57989268D01*
X38165943Y-57907261D01*
X38165744Y-57841895D01*
X38164559Y-57779173D01*
X38161729Y-57736334D01*
X38156609Y-57708220D01*
X38148553Y-57689675D01*
X38136914Y-57675543D01*
X38108303Y-57655600D01*
X38060239Y-57648083D01*
X38012688Y-57667079D01*
X38009550Y-57669511D01*
X37999769Y-57680748D01*
X37992553Y-57698770D01*
X37987299Y-57728026D01*
X37983402Y-57772962D01*
X37980256Y-57838028D01*
X37977257Y-57927670D01*
X37970000Y-58167697D01*
X37908314Y-58140044D01*
X37846629Y-58112391D01*
X37846629Y-57893246D01*
X37846884Y-57833711D01*
X37849086Y-57750892D01*
X37854661Y-57689227D01*
X37864941Y-57643748D01*
X37881258Y-57609484D01*
X37904943Y-57581466D01*
X37937328Y-57554723D01*
X37983907Y-57527780D01*
X38057287Y-57510191D01*
X38131020Y-57517822D01*
G37*
X38131020Y-57517822D02*
X38198810Y-57549680D01*
X38254366Y-57604770D01*
X38265881Y-57622016D01*
X38275432Y-57641562D01*
X38282206Y-57666198D01*
X38286819Y-57700711D01*
X38289888Y-57749889D01*
X38292029Y-57818519D01*
X38293859Y-57911389D01*
X38298404Y-58169007D01*
X38260225Y-58154491D01*
X38225268Y-58141156D01*
X38199097Y-58128323D01*
X38182013Y-58111780D01*
X38172086Y-58086465D01*
X38167386Y-58047316D01*
X38165982Y-57989268D01*
X38165943Y-57907261D01*
X38165744Y-57841895D01*
X38164559Y-57779173D01*
X38161729Y-57736334D01*
X38156609Y-57708220D01*
X38148553Y-57689675D01*
X38136914Y-57675543D01*
X38108303Y-57655600D01*
X38060239Y-57648083D01*
X38012688Y-57667079D01*
X38009550Y-57669511D01*
X37999769Y-57680748D01*
X37992553Y-57698770D01*
X37987299Y-57728026D01*
X37983402Y-57772962D01*
X37980256Y-57838028D01*
X37977257Y-57927670D01*
X37970000Y-58167697D01*
X37908314Y-58140044D01*
X37846629Y-58112391D01*
X37846629Y-57893246D01*
X37846884Y-57833711D01*
X37849086Y-57750892D01*
X37854661Y-57689227D01*
X37864941Y-57643748D01*
X37881258Y-57609484D01*
X37904943Y-57581466D01*
X37937328Y-57554723D01*
X37983907Y-57527780D01*
X38057287Y-57510191D01*
X38131020Y-57517822D01*
X34047400Y-57558752D02*
X34030052Y-57566334D01*
X34030052Y-57566334D02*
X33988644Y-57599128D01*
X33988644Y-57599128D02*
X33953235Y-57646547D01*
X33953235Y-57646547D02*
X33931336Y-57697151D01*
X33931336Y-57697151D02*
X33927771Y-57722098D01*
X33927771Y-57722098D02*
X33939721Y-57756927D01*
X33939721Y-57756927D02*
X33965933Y-57775357D01*
X33965933Y-57775357D02*
X33994036Y-57786516D01*
X33994036Y-57786516D02*
X34006905Y-57788572D01*
X34006905Y-57788572D02*
X34013171Y-57773649D01*
X34013171Y-57773649D02*
X34025544Y-57741175D01*
X34025544Y-57741175D02*
X34030972Y-57726502D01*
X34030972Y-57726502D02*
X34061410Y-57675744D01*
X34061410Y-57675744D02*
X34105480Y-57650427D01*
X34105480Y-57650427D02*
X34161990Y-57651206D01*
X34161990Y-57651206D02*
X34166175Y-57652203D01*
X34166175Y-57652203D02*
X34196345Y-57666507D01*
X34196345Y-57666507D02*
X34218524Y-57694393D01*
X34218524Y-57694393D02*
X34233673Y-57739287D01*
X34233673Y-57739287D02*
X34242750Y-57804615D01*
X34242750Y-57804615D02*
X34246714Y-57893804D01*
X34246714Y-57893804D02*
X34247086Y-57941261D01*
X34247086Y-57941261D02*
X34247270Y-58016071D01*
X34247270Y-58016071D02*
X34248478Y-58067069D01*
X34248478Y-58067069D02*
X34251691Y-58099471D01*
X34251691Y-58099471D02*
X34257891Y-58118495D01*
X34257891Y-58118495D02*
X34268060Y-58129356D01*
X34268060Y-58129356D02*
X34283181Y-58137272D01*
X34283181Y-58137272D02*
X34284054Y-58137670D01*
X34284054Y-58137670D02*
X34313172Y-58149981D01*
X34313172Y-58149981D02*
X34327597Y-58154514D01*
X34327597Y-58154514D02*
X34329814Y-58140809D01*
X34329814Y-58140809D02*
X34331711Y-58102925D01*
X34331711Y-58102925D02*
X34333153Y-58045715D01*
X34333153Y-58045715D02*
X34334002Y-57974027D01*
X34334002Y-57974027D02*
X34334171Y-57921565D01*
X34334171Y-57921565D02*
X34333308Y-57820047D01*
X34333308Y-57820047D02*
X34329930Y-57743032D01*
X34329930Y-57743032D02*
X34322858Y-57686023D01*
X34322858Y-57686023D02*
X34310912Y-57644526D01*
X34310912Y-57644526D02*
X34292910Y-57614043D01*
X34292910Y-57614043D02*
X34267673Y-57590080D01*
X34267673Y-57590080D02*
X34242753Y-57573355D01*
X34242753Y-57573355D02*
X34182829Y-57551097D01*
X34182829Y-57551097D02*
X34113089Y-57546076D01*
X34113089Y-57546076D02*
X34047400Y-57558752D01*
X34047400Y-57558752D02*
X34047400Y-57558752D01*
G36*
X34182829Y-57551097D02*
G01*
X34242753Y-57573355D01*
X34267673Y-57590080D01*
X34292910Y-57614043D01*
X34310912Y-57644526D01*
X34322858Y-57686023D01*
X34329930Y-57743032D01*
X34333308Y-57820047D01*
X34334171Y-57921565D01*
X34334002Y-57974027D01*
X34333153Y-58045715D01*
X34331711Y-58102925D01*
X34329814Y-58140809D01*
X34327597Y-58154514D01*
X34313172Y-58149981D01*
X34284054Y-58137670D01*
X34283181Y-58137272D01*
X34268060Y-58129356D01*
X34257891Y-58118495D01*
X34251691Y-58099471D01*
X34248478Y-58067069D01*
X34247270Y-58016071D01*
X34247086Y-57941261D01*
X34246714Y-57893804D01*
X34242750Y-57804615D01*
X34233673Y-57739287D01*
X34218524Y-57694393D01*
X34196345Y-57666507D01*
X34166175Y-57652203D01*
X34161990Y-57651206D01*
X34105480Y-57650427D01*
X34061410Y-57675744D01*
X34030972Y-57726502D01*
X34025544Y-57741175D01*
X34013171Y-57773649D01*
X34006905Y-57788572D01*
X33994036Y-57786516D01*
X33965933Y-57775357D01*
X33939721Y-57756927D01*
X33927771Y-57722098D01*
X33931336Y-57697151D01*
X33953235Y-57646547D01*
X33988644Y-57599128D01*
X34030052Y-57566334D01*
X34047400Y-57558752D01*
X34113089Y-57546076D01*
X34182829Y-57551097D01*
G37*
X34182829Y-57551097D02*
X34242753Y-57573355D01*
X34267673Y-57590080D01*
X34292910Y-57614043D01*
X34310912Y-57644526D01*
X34322858Y-57686023D01*
X34329930Y-57743032D01*
X34333308Y-57820047D01*
X34334171Y-57921565D01*
X34334002Y-57974027D01*
X34333153Y-58045715D01*
X34331711Y-58102925D01*
X34329814Y-58140809D01*
X34327597Y-58154514D01*
X34313172Y-58149981D01*
X34284054Y-58137670D01*
X34283181Y-58137272D01*
X34268060Y-58129356D01*
X34257891Y-58118495D01*
X34251691Y-58099471D01*
X34248478Y-58067069D01*
X34247270Y-58016071D01*
X34247086Y-57941261D01*
X34246714Y-57893804D01*
X34242750Y-57804615D01*
X34233673Y-57739287D01*
X34218524Y-57694393D01*
X34196345Y-57666507D01*
X34166175Y-57652203D01*
X34161990Y-57651206D01*
X34105480Y-57650427D01*
X34061410Y-57675744D01*
X34030972Y-57726502D01*
X34025544Y-57741175D01*
X34013171Y-57773649D01*
X34006905Y-57788572D01*
X33994036Y-57786516D01*
X33965933Y-57775357D01*
X33939721Y-57756927D01*
X33927771Y-57722098D01*
X33931336Y-57697151D01*
X33953235Y-57646547D01*
X33988644Y-57599128D01*
X34030052Y-57566334D01*
X34047400Y-57558752D01*
X34113089Y-57546076D01*
X34182829Y-57551097D01*
X35509883Y-57665358D02*
X35510067Y-57773837D01*
X35510067Y-57773837D02*
X35510781Y-57857287D01*
X35510781Y-57857287D02*
X35512325Y-57919704D01*
X35512325Y-57919704D02*
X35514999Y-57965085D01*
X35514999Y-57965085D02*
X35519106Y-57997429D01*
X35519106Y-57997429D02*
X35524945Y-58020733D01*
X35524945Y-58020733D02*
X35532818Y-58038995D01*
X35532818Y-58038995D02*
X35538779Y-58049418D01*
X35538779Y-58049418D02*
X35588145Y-58105945D01*
X35588145Y-58105945D02*
X35650736Y-58141377D01*
X35650736Y-58141377D02*
X35719987Y-58154090D01*
X35719987Y-58154090D02*
X35789332Y-58142463D01*
X35789332Y-58142463D02*
X35830625Y-58121568D01*
X35830625Y-58121568D02*
X35873975Y-58085422D01*
X35873975Y-58085422D02*
X35903519Y-58041276D01*
X35903519Y-58041276D02*
X35921345Y-57983462D01*
X35921345Y-57983462D02*
X35929537Y-57906313D01*
X35929537Y-57906313D02*
X35930698Y-57849714D01*
X35930698Y-57849714D02*
X35930542Y-57845647D01*
X35930542Y-57845647D02*
X35829143Y-57845647D01*
X35829143Y-57845647D02*
X35828524Y-57910550D01*
X35828524Y-57910550D02*
X35825686Y-57953514D01*
X35825686Y-57953514D02*
X35819160Y-57981622D01*
X35819160Y-57981622D02*
X35807477Y-58001953D01*
X35807477Y-58001953D02*
X35793517Y-58017288D01*
X35793517Y-58017288D02*
X35746635Y-58046890D01*
X35746635Y-58046890D02*
X35696299Y-58049419D01*
X35696299Y-58049419D02*
X35648724Y-58024705D01*
X35648724Y-58024705D02*
X35645021Y-58021356D01*
X35645021Y-58021356D02*
X35629217Y-58003935D01*
X35629217Y-58003935D02*
X35619307Y-57983209D01*
X35619307Y-57983209D02*
X35613942Y-57952362D01*
X35613942Y-57952362D02*
X35611772Y-57904577D01*
X35611772Y-57904577D02*
X35611429Y-57851748D01*
X35611429Y-57851748D02*
X35612173Y-57785381D01*
X35612173Y-57785381D02*
X35615252Y-57741106D01*
X35615252Y-57741106D02*
X35621939Y-57712009D01*
X35621939Y-57712009D02*
X35633504Y-57691173D01*
X35633504Y-57691173D02*
X35642987Y-57680107D01*
X35642987Y-57680107D02*
X35687040Y-57652198D01*
X35687040Y-57652198D02*
X35737776Y-57648843D01*
X35737776Y-57648843D02*
X35786204Y-57670159D01*
X35786204Y-57670159D02*
X35795550Y-57678073D01*
X35795550Y-57678073D02*
X35811460Y-57695647D01*
X35811460Y-57695647D02*
X35821390Y-57716587D01*
X35821390Y-57716587D02*
X35826722Y-57747782D01*
X35826722Y-57747782D02*
X35828837Y-57796122D01*
X35828837Y-57796122D02*
X35829143Y-57845647D01*
X35829143Y-57845647D02*
X35930542Y-57845647D01*
X35930542Y-57845647D02*
X35927190Y-57758568D01*
X35927190Y-57758568D02*
X35915274Y-57690086D01*
X35915274Y-57690086D02*
X35892865Y-57638600D01*
X35892865Y-57638600D02*
X35857876Y-57598443D01*
X35857876Y-57598443D02*
X35830625Y-57577861D01*
X35830625Y-57577861D02*
X35781093Y-57555625D01*
X35781093Y-57555625D02*
X35723684Y-57545304D01*
X35723684Y-57545304D02*
X35670318Y-57548067D01*
X35670318Y-57548067D02*
X35640457Y-57559212D01*
X35640457Y-57559212D02*
X35628739Y-57562383D01*
X35628739Y-57562383D02*
X35620963Y-57550557D01*
X35620963Y-57550557D02*
X35615535Y-57518866D01*
X35615535Y-57518866D02*
X35611429Y-57470593D01*
X35611429Y-57470593D02*
X35606933Y-57416829D01*
X35606933Y-57416829D02*
X35600687Y-57384482D01*
X35600687Y-57384482D02*
X35589324Y-57365985D01*
X35589324Y-57365985D02*
X35569472Y-57353770D01*
X35569472Y-57353770D02*
X35557000Y-57348362D01*
X35557000Y-57348362D02*
X35509829Y-57328601D01*
X35509829Y-57328601D02*
X35509883Y-57665358D01*
X35509883Y-57665358D02*
X35509883Y-57665358D01*
G36*
X35929537Y-57906313D02*
G01*
X35921345Y-57983462D01*
X35903519Y-58041276D01*
X35873975Y-58085422D01*
X35830625Y-58121568D01*
X35789332Y-58142463D01*
X35719987Y-58154090D01*
X35650736Y-58141377D01*
X35588145Y-58105945D01*
X35538779Y-58049418D01*
X35532818Y-58038995D01*
X35524945Y-58020733D01*
X35519106Y-57997429D01*
X35514999Y-57965085D01*
X35512325Y-57919704D01*
X35510781Y-57857287D01*
X35510734Y-57851748D01*
X35611429Y-57851748D01*
X35611772Y-57904577D01*
X35613942Y-57952362D01*
X35619307Y-57983209D01*
X35629217Y-58003935D01*
X35645021Y-58021356D01*
X35648724Y-58024705D01*
X35696299Y-58049419D01*
X35746635Y-58046890D01*
X35793517Y-58017288D01*
X35807477Y-58001953D01*
X35819160Y-57981622D01*
X35825686Y-57953514D01*
X35828524Y-57910550D01*
X35829143Y-57845647D01*
X35828837Y-57796122D01*
X35826722Y-57747782D01*
X35821390Y-57716587D01*
X35811460Y-57695647D01*
X35795550Y-57678073D01*
X35786204Y-57670159D01*
X35737776Y-57648843D01*
X35687040Y-57652198D01*
X35642987Y-57680107D01*
X35633504Y-57691173D01*
X35621939Y-57712009D01*
X35615252Y-57741106D01*
X35612173Y-57785381D01*
X35611429Y-57851748D01*
X35510734Y-57851748D01*
X35510067Y-57773837D01*
X35509883Y-57665358D01*
X35509829Y-57328601D01*
X35557000Y-57348362D01*
X35569472Y-57353770D01*
X35589324Y-57365985D01*
X35600687Y-57384482D01*
X35606933Y-57416829D01*
X35611429Y-57470593D01*
X35615535Y-57518866D01*
X35620963Y-57550557D01*
X35628739Y-57562383D01*
X35640457Y-57559212D01*
X35670318Y-57548067D01*
X35723684Y-57545304D01*
X35781093Y-57555625D01*
X35830625Y-57577861D01*
X35857876Y-57598443D01*
X35892865Y-57638600D01*
X35915274Y-57690086D01*
X35927190Y-57758568D01*
X35930542Y-57845647D01*
X35930698Y-57849714D01*
X35929537Y-57906313D01*
G37*
X35929537Y-57906313D02*
X35921345Y-57983462D01*
X35903519Y-58041276D01*
X35873975Y-58085422D01*
X35830625Y-58121568D01*
X35789332Y-58142463D01*
X35719987Y-58154090D01*
X35650736Y-58141377D01*
X35588145Y-58105945D01*
X35538779Y-58049418D01*
X35532818Y-58038995D01*
X35524945Y-58020733D01*
X35519106Y-57997429D01*
X35514999Y-57965085D01*
X35512325Y-57919704D01*
X35510781Y-57857287D01*
X35510734Y-57851748D01*
X35611429Y-57851748D01*
X35611772Y-57904577D01*
X35613942Y-57952362D01*
X35619307Y-57983209D01*
X35629217Y-58003935D01*
X35645021Y-58021356D01*
X35648724Y-58024705D01*
X35696299Y-58049419D01*
X35746635Y-58046890D01*
X35793517Y-58017288D01*
X35807477Y-58001953D01*
X35819160Y-57981622D01*
X35825686Y-57953514D01*
X35828524Y-57910550D01*
X35829143Y-57845647D01*
X35828837Y-57796122D01*
X35826722Y-57747782D01*
X35821390Y-57716587D01*
X35811460Y-57695647D01*
X35795550Y-57678073D01*
X35786204Y-57670159D01*
X35737776Y-57648843D01*
X35687040Y-57652198D01*
X35642987Y-57680107D01*
X35633504Y-57691173D01*
X35621939Y-57712009D01*
X35615252Y-57741106D01*
X35612173Y-57785381D01*
X35611429Y-57851748D01*
X35510734Y-57851748D01*
X35510067Y-57773837D01*
X35509883Y-57665358D01*
X35509829Y-57328601D01*
X35557000Y-57348362D01*
X35569472Y-57353770D01*
X35589324Y-57365985D01*
X35600687Y-57384482D01*
X35606933Y-57416829D01*
X35611429Y-57470593D01*
X35615535Y-57518866D01*
X35620963Y-57550557D01*
X35628739Y-57562383D01*
X35640457Y-57559212D01*
X35670318Y-57548067D01*
X35723684Y-57545304D01*
X35781093Y-57555625D01*
X35830625Y-57577861D01*
X35857876Y-57598443D01*
X35892865Y-57638600D01*
X35915274Y-57690086D01*
X35927190Y-57758568D01*
X35930542Y-57845647D01*
X35930698Y-57849714D01*
X35929537Y-57906313D01*
X37324114Y-57451289D02*
X37319861Y-57510613D01*
X37319861Y-57510613D02*
X37314975Y-57545572D01*
X37314975Y-57545572D02*
X37308205Y-57560820D01*
X37308205Y-57560820D02*
X37298298Y-57561015D01*
X37298298Y-57561015D02*
X37295086Y-57559195D01*
X37295086Y-57559195D02*
X37252356Y-57546015D01*
X37252356Y-57546015D02*
X37196773Y-57546785D01*
X37196773Y-57546785D02*
X37140263Y-57560333D01*
X37140263Y-57560333D02*
X37104918Y-57577861D01*
X37104918Y-57577861D02*
X37068679Y-57605861D01*
X37068679Y-57605861D02*
X37042187Y-57637549D01*
X37042187Y-57637549D02*
X37024001Y-57677813D01*
X37024001Y-57677813D02*
X37012678Y-57731543D01*
X37012678Y-57731543D02*
X37006778Y-57803626D01*
X37006778Y-57803626D02*
X37004857Y-57898951D01*
X37004857Y-57898951D02*
X37004823Y-57917237D01*
X37004823Y-57917237D02*
X37004800Y-58122646D01*
X37004800Y-58122646D02*
X37050509Y-58138580D01*
X37050509Y-58138580D02*
X37082973Y-58149420D01*
X37082973Y-58149420D02*
X37100785Y-58154468D01*
X37100785Y-58154468D02*
X37101309Y-58154514D01*
X37101309Y-58154514D02*
X37103063Y-58140828D01*
X37103063Y-58140828D02*
X37104556Y-58103076D01*
X37104556Y-58103076D02*
X37105674Y-58046224D01*
X37105674Y-58046224D02*
X37106303Y-57975234D01*
X37106303Y-57975234D02*
X37106400Y-57932073D01*
X37106400Y-57932073D02*
X37106602Y-57846973D01*
X37106602Y-57846973D02*
X37107642Y-57785981D01*
X37107642Y-57785981D02*
X37110169Y-57744177D01*
X37110169Y-57744177D02*
X37114836Y-57716642D01*
X37114836Y-57716642D02*
X37122293Y-57698456D01*
X37122293Y-57698456D02*
X37133189Y-57684698D01*
X37133189Y-57684698D02*
X37139993Y-57678073D01*
X37139993Y-57678073D02*
X37186728Y-57651375D01*
X37186728Y-57651375D02*
X37237728Y-57649375D01*
X37237728Y-57649375D02*
X37283999Y-57671955D01*
X37283999Y-57671955D02*
X37292556Y-57680107D01*
X37292556Y-57680107D02*
X37305107Y-57695436D01*
X37305107Y-57695436D02*
X37313812Y-57713618D01*
X37313812Y-57713618D02*
X37319369Y-57739909D01*
X37319369Y-57739909D02*
X37322474Y-57779562D01*
X37322474Y-57779562D02*
X37323824Y-57837832D01*
X37323824Y-57837832D02*
X37324114Y-57918173D01*
X37324114Y-57918173D02*
X37324114Y-58122646D01*
X37324114Y-58122646D02*
X37369823Y-58138580D01*
X37369823Y-58138580D02*
X37402287Y-58149420D01*
X37402287Y-58149420D02*
X37420099Y-58154468D01*
X37420099Y-58154468D02*
X37420623Y-58154514D01*
X37420623Y-58154514D02*
X37421963Y-58140623D01*
X37421963Y-58140623D02*
X37423172Y-58101439D01*
X37423172Y-58101439D02*
X37424199Y-58040700D01*
X37424199Y-58040700D02*
X37424998Y-57962141D01*
X37424998Y-57962141D02*
X37425519Y-57869498D01*
X37425519Y-57869498D02*
X37425714Y-57766509D01*
X37425714Y-57766509D02*
X37425714Y-57369342D01*
X37425714Y-57369342D02*
X37378543Y-57349444D01*
X37378543Y-57349444D02*
X37331371Y-57329547D01*
X37331371Y-57329547D02*
X37324114Y-57451289D01*
X37324114Y-57451289D02*
X37324114Y-57451289D01*
G36*
X37378543Y-57349444D02*
G01*
X37425714Y-57369342D01*
X37425714Y-57766509D01*
X37425519Y-57869498D01*
X37424998Y-57962141D01*
X37424199Y-58040700D01*
X37423172Y-58101439D01*
X37421963Y-58140623D01*
X37420623Y-58154514D01*
X37420099Y-58154468D01*
X37402287Y-58149420D01*
X37369823Y-58138580D01*
X37324114Y-58122646D01*
X37324114Y-57918173D01*
X37323824Y-57837832D01*
X37322474Y-57779562D01*
X37319369Y-57739909D01*
X37313812Y-57713618D01*
X37305107Y-57695436D01*
X37292556Y-57680107D01*
X37283999Y-57671955D01*
X37237728Y-57649375D01*
X37186728Y-57651375D01*
X37139993Y-57678073D01*
X37133189Y-57684698D01*
X37122293Y-57698456D01*
X37114836Y-57716642D01*
X37110169Y-57744177D01*
X37107642Y-57785981D01*
X37106602Y-57846973D01*
X37106400Y-57932073D01*
X37106303Y-57975234D01*
X37105674Y-58046224D01*
X37104556Y-58103076D01*
X37103063Y-58140828D01*
X37101309Y-58154514D01*
X37100785Y-58154468D01*
X37082973Y-58149420D01*
X37050509Y-58138580D01*
X37004800Y-58122646D01*
X37004823Y-57917237D01*
X37004857Y-57898951D01*
X37006778Y-57803626D01*
X37012678Y-57731543D01*
X37024001Y-57677813D01*
X37042187Y-57637549D01*
X37068679Y-57605861D01*
X37104918Y-57577861D01*
X37140263Y-57560333D01*
X37196773Y-57546785D01*
X37252356Y-57546015D01*
X37295086Y-57559195D01*
X37298298Y-57561015D01*
X37308205Y-57560820D01*
X37314975Y-57545572D01*
X37319861Y-57510613D01*
X37324114Y-57451289D01*
X37331371Y-57329547D01*
X37378543Y-57349444D01*
G37*
X37378543Y-57349444D02*
X37425714Y-57369342D01*
X37425714Y-57766509D01*
X37425519Y-57869498D01*
X37424998Y-57962141D01*
X37424199Y-58040700D01*
X37423172Y-58101439D01*
X37421963Y-58140623D01*
X37420623Y-58154514D01*
X37420099Y-58154468D01*
X37402287Y-58149420D01*
X37369823Y-58138580D01*
X37324114Y-58122646D01*
X37324114Y-57918173D01*
X37323824Y-57837832D01*
X37322474Y-57779562D01*
X37319369Y-57739909D01*
X37313812Y-57713618D01*
X37305107Y-57695436D01*
X37292556Y-57680107D01*
X37283999Y-57671955D01*
X37237728Y-57649375D01*
X37186728Y-57651375D01*
X37139993Y-57678073D01*
X37133189Y-57684698D01*
X37122293Y-57698456D01*
X37114836Y-57716642D01*
X37110169Y-57744177D01*
X37107642Y-57785981D01*
X37106602Y-57846973D01*
X37106400Y-57932073D01*
X37106303Y-57975234D01*
X37105674Y-58046224D01*
X37104556Y-58103076D01*
X37103063Y-58140828D01*
X37101309Y-58154514D01*
X37100785Y-58154468D01*
X37082973Y-58149420D01*
X37050509Y-58138580D01*
X37004800Y-58122646D01*
X37004823Y-57917237D01*
X37004857Y-57898951D01*
X37006778Y-57803626D01*
X37012678Y-57731543D01*
X37024001Y-57677813D01*
X37042187Y-57637549D01*
X37068679Y-57605861D01*
X37104918Y-57577861D01*
X37140263Y-57560333D01*
X37196773Y-57546785D01*
X37252356Y-57546015D01*
X37295086Y-57559195D01*
X37298298Y-57561015D01*
X37308205Y-57560820D01*
X37314975Y-57545572D01*
X37319861Y-57510613D01*
X37324114Y-57451289D01*
X37331371Y-57329547D01*
X37378543Y-57349444D01*
X36660256Y-57550968D02*
X36603384Y-57572087D01*
X36603384Y-57572087D02*
X36602733Y-57572493D01*
X36602733Y-57572493D02*
X36567560Y-57598380D01*
X36567560Y-57598380D02*
X36541593Y-57628633D01*
X36541593Y-57628633D02*
X36523330Y-57668058D01*
X36523330Y-57668058D02*
X36511268Y-57721462D01*
X36511268Y-57721462D02*
X36503904Y-57793651D01*
X36503904Y-57793651D02*
X36499736Y-57889432D01*
X36499736Y-57889432D02*
X36499371Y-57903078D01*
X36499371Y-57903078D02*
X36494124Y-58108842D01*
X36494124Y-58108842D02*
X36538284Y-58131678D01*
X36538284Y-58131678D02*
X36570237Y-58147110D01*
X36570237Y-58147110D02*
X36589530Y-58154423D01*
X36589530Y-58154423D02*
X36590422Y-58154514D01*
X36590422Y-58154514D02*
X36593761Y-58141022D01*
X36593761Y-58141022D02*
X36596413Y-58104626D01*
X36596413Y-58104626D02*
X36598044Y-58051452D01*
X36598044Y-58051452D02*
X36598400Y-58008393D01*
X36598400Y-58008393D02*
X36598408Y-57938641D01*
X36598408Y-57938641D02*
X36601597Y-57894837D01*
X36601597Y-57894837D02*
X36612712Y-57873944D01*
X36612712Y-57873944D02*
X36636499Y-57872925D01*
X36636499Y-57872925D02*
X36677704Y-57888741D01*
X36677704Y-57888741D02*
X36739914Y-57917815D01*
X36739914Y-57917815D02*
X36785659Y-57941963D01*
X36785659Y-57941963D02*
X36809187Y-57962913D01*
X36809187Y-57962913D02*
X36816104Y-57985747D01*
X36816104Y-57985747D02*
X36816114Y-57986877D01*
X36816114Y-57986877D02*
X36804701Y-58026212D01*
X36804701Y-58026212D02*
X36770908Y-58047462D01*
X36770908Y-58047462D02*
X36719191Y-58050539D01*
X36719191Y-58050539D02*
X36681939Y-58050006D01*
X36681939Y-58050006D02*
X36662297Y-58060735D01*
X36662297Y-58060735D02*
X36650048Y-58086505D01*
X36650048Y-58086505D02*
X36642998Y-58119337D01*
X36642998Y-58119337D02*
X36653158Y-58137966D01*
X36653158Y-58137966D02*
X36656983Y-58140632D01*
X36656983Y-58140632D02*
X36692999Y-58151340D01*
X36692999Y-58151340D02*
X36743434Y-58152856D01*
X36743434Y-58152856D02*
X36795374Y-58145759D01*
X36795374Y-58145759D02*
X36832178Y-58132788D01*
X36832178Y-58132788D02*
X36883062Y-58089585D01*
X36883062Y-58089585D02*
X36911986Y-58029446D01*
X36911986Y-58029446D02*
X36917714Y-57982462D01*
X36917714Y-57982462D02*
X36913343Y-57940082D01*
X36913343Y-57940082D02*
X36897525Y-57905488D01*
X36897525Y-57905488D02*
X36866203Y-57874763D01*
X36866203Y-57874763D02*
X36815322Y-57843990D01*
X36815322Y-57843990D02*
X36740824Y-57809252D01*
X36740824Y-57809252D02*
X36736286Y-57807288D01*
X36736286Y-57807288D02*
X36669179Y-57776287D01*
X36669179Y-57776287D02*
X36627768Y-57750862D01*
X36627768Y-57750862D02*
X36610019Y-57728014D01*
X36610019Y-57728014D02*
X36613893Y-57704745D01*
X36613893Y-57704745D02*
X36637357Y-57678056D01*
X36637357Y-57678056D02*
X36644373Y-57671914D01*
X36644373Y-57671914D02*
X36691370Y-57648100D01*
X36691370Y-57648100D02*
X36740067Y-57649103D01*
X36740067Y-57649103D02*
X36782478Y-57672451D01*
X36782478Y-57672451D02*
X36810616Y-57715675D01*
X36810616Y-57715675D02*
X36813231Y-57724160D01*
X36813231Y-57724160D02*
X36838692Y-57765308D01*
X36838692Y-57765308D02*
X36870999Y-57785128D01*
X36870999Y-57785128D02*
X36917714Y-57804770D01*
X36917714Y-57804770D02*
X36917714Y-57753950D01*
X36917714Y-57753950D02*
X36903504Y-57680082D01*
X36903504Y-57680082D02*
X36861325Y-57612327D01*
X36861325Y-57612327D02*
X36839376Y-57589661D01*
X36839376Y-57589661D02*
X36789483Y-57560569D01*
X36789483Y-57560569D02*
X36726033Y-57547400D01*
X36726033Y-57547400D02*
X36660256Y-57550968D01*
X36660256Y-57550968D02*
X36660256Y-57550968D01*
G36*
X36789483Y-57560569D02*
G01*
X36839376Y-57589661D01*
X36861325Y-57612327D01*
X36903504Y-57680082D01*
X36917714Y-57753950D01*
X36917714Y-57804770D01*
X36870999Y-57785128D01*
X36838692Y-57765308D01*
X36813231Y-57724160D01*
X36810616Y-57715675D01*
X36782478Y-57672451D01*
X36740067Y-57649103D01*
X36691370Y-57648100D01*
X36644373Y-57671914D01*
X36637357Y-57678056D01*
X36613893Y-57704745D01*
X36610019Y-57728014D01*
X36627768Y-57750862D01*
X36669179Y-57776287D01*
X36736286Y-57807288D01*
X36740824Y-57809252D01*
X36815322Y-57843990D01*
X36866203Y-57874763D01*
X36897525Y-57905488D01*
X36913343Y-57940082D01*
X36917714Y-57982462D01*
X36911986Y-58029446D01*
X36883062Y-58089585D01*
X36832178Y-58132788D01*
X36795374Y-58145759D01*
X36743434Y-58152856D01*
X36692999Y-58151340D01*
X36656983Y-58140632D01*
X36653158Y-58137966D01*
X36642998Y-58119337D01*
X36650048Y-58086505D01*
X36662297Y-58060735D01*
X36681939Y-58050006D01*
X36719191Y-58050539D01*
X36770908Y-58047462D01*
X36804701Y-58026212D01*
X36816114Y-57986877D01*
X36816104Y-57985747D01*
X36809187Y-57962913D01*
X36785659Y-57941963D01*
X36739914Y-57917815D01*
X36677704Y-57888741D01*
X36636499Y-57872925D01*
X36612712Y-57873944D01*
X36601597Y-57894837D01*
X36598408Y-57938641D01*
X36598400Y-58008393D01*
X36598044Y-58051452D01*
X36596413Y-58104626D01*
X36593761Y-58141022D01*
X36590422Y-58154514D01*
X36589530Y-58154423D01*
X36570237Y-58147110D01*
X36538284Y-58131678D01*
X36494124Y-58108842D01*
X36499371Y-57903078D01*
X36499736Y-57889432D01*
X36503904Y-57793651D01*
X36511268Y-57721462D01*
X36523330Y-57668058D01*
X36541593Y-57628633D01*
X36567560Y-57598380D01*
X36602733Y-57572493D01*
X36603384Y-57572087D01*
X36660256Y-57550968D01*
X36726033Y-57547400D01*
X36789483Y-57560569D01*
G37*
X36789483Y-57560569D02*
X36839376Y-57589661D01*
X36861325Y-57612327D01*
X36903504Y-57680082D01*
X36917714Y-57753950D01*
X36917714Y-57804770D01*
X36870999Y-57785128D01*
X36838692Y-57765308D01*
X36813231Y-57724160D01*
X36810616Y-57715675D01*
X36782478Y-57672451D01*
X36740067Y-57649103D01*
X36691370Y-57648100D01*
X36644373Y-57671914D01*
X36637357Y-57678056D01*
X36613893Y-57704745D01*
X36610019Y-57728014D01*
X36627768Y-57750862D01*
X36669179Y-57776287D01*
X36736286Y-57807288D01*
X36740824Y-57809252D01*
X36815322Y-57843990D01*
X36866203Y-57874763D01*
X36897525Y-57905488D01*
X36913343Y-57940082D01*
X36917714Y-57982462D01*
X36911986Y-58029446D01*
X36883062Y-58089585D01*
X36832178Y-58132788D01*
X36795374Y-58145759D01*
X36743434Y-58152856D01*
X36692999Y-58151340D01*
X36656983Y-58140632D01*
X36653158Y-58137966D01*
X36642998Y-58119337D01*
X36650048Y-58086505D01*
X36662297Y-58060735D01*
X36681939Y-58050006D01*
X36719191Y-58050539D01*
X36770908Y-58047462D01*
X36804701Y-58026212D01*
X36816114Y-57986877D01*
X36816104Y-57985747D01*
X36809187Y-57962913D01*
X36785659Y-57941963D01*
X36739914Y-57917815D01*
X36677704Y-57888741D01*
X36636499Y-57872925D01*
X36612712Y-57873944D01*
X36601597Y-57894837D01*
X36598408Y-57938641D01*
X36598400Y-58008393D01*
X36598044Y-58051452D01*
X36596413Y-58104626D01*
X36593761Y-58141022D01*
X36590422Y-58154514D01*
X36589530Y-58154423D01*
X36570237Y-58147110D01*
X36538284Y-58131678D01*
X36494124Y-58108842D01*
X36499371Y-57903078D01*
X36499736Y-57889432D01*
X36503904Y-57793651D01*
X36511268Y-57721462D01*
X36523330Y-57668058D01*
X36541593Y-57628633D01*
X36567560Y-57598380D01*
X36602733Y-57572493D01*
X36603384Y-57572087D01*
X36660256Y-57550968D01*
X36726033Y-57547400D01*
X36789483Y-57560569D01*
X36596090Y-52842348D02*
X36517546Y-52842778D01*
X36517546Y-52842778D02*
X36460702Y-52843942D01*
X36460702Y-52843942D02*
X36421895Y-52846207D01*
X36421895Y-52846207D02*
X36397462Y-52849940D01*
X36397462Y-52849940D02*
X36383738Y-52855506D01*
X36383738Y-52855506D02*
X36377060Y-52863273D01*
X36377060Y-52863273D02*
X36373764Y-52873605D01*
X36373764Y-52873605D02*
X36373444Y-52874943D01*
X36373444Y-52874943D02*
X36368438Y-52899079D01*
X36368438Y-52899079D02*
X36359171Y-52946701D01*
X36359171Y-52946701D02*
X36346608Y-53012741D01*
X36346608Y-53012741D02*
X36331713Y-53092128D01*
X36331713Y-53092128D02*
X36315449Y-53179796D01*
X36315449Y-53179796D02*
X36314881Y-53182875D01*
X36314881Y-53182875D02*
X36298590Y-53268789D01*
X36298590Y-53268789D02*
X36283348Y-53344696D01*
X36283348Y-53344696D02*
X36270139Y-53406045D01*
X36270139Y-53406045D02*
X36259946Y-53448282D01*
X36259946Y-53448282D02*
X36253752Y-53466855D01*
X36253752Y-53466855D02*
X36253457Y-53467184D01*
X36253457Y-53467184D02*
X36235212Y-53476253D01*
X36235212Y-53476253D02*
X36197595Y-53491367D01*
X36197595Y-53491367D02*
X36148729Y-53509262D01*
X36148729Y-53509262D02*
X36148457Y-53509358D01*
X36148457Y-53509358D02*
X36086907Y-53532493D01*
X36086907Y-53532493D02*
X36014343Y-53561965D01*
X36014343Y-53561965D02*
X35945943Y-53591597D01*
X35945943Y-53591597D02*
X35942706Y-53593062D01*
X35942706Y-53593062D02*
X35831298Y-53643626D01*
X35831298Y-53643626D02*
X35584601Y-53475160D01*
X35584601Y-53475160D02*
X35508923Y-53423803D01*
X35508923Y-53423803D02*
X35440369Y-53377889D01*
X35440369Y-53377889D02*
X35382912Y-53340030D01*
X35382912Y-53340030D02*
X35340524Y-53312837D01*
X35340524Y-53312837D02*
X35317175Y-53298921D01*
X35317175Y-53298921D02*
X35314958Y-53297889D01*
X35314958Y-53297889D02*
X35297990Y-53302484D01*
X35297990Y-53302484D02*
X35266299Y-53324655D01*
X35266299Y-53324655D02*
X35218648Y-53365447D01*
X35218648Y-53365447D02*
X35153802Y-53425905D01*
X35153802Y-53425905D02*
X35087603Y-53490227D01*
X35087603Y-53490227D02*
X35023786Y-53553612D01*
X35023786Y-53553612D02*
X34966671Y-53611451D01*
X34966671Y-53611451D02*
X34919695Y-53660175D01*
X34919695Y-53660175D02*
X34886297Y-53696210D01*
X34886297Y-53696210D02*
X34869915Y-53715984D01*
X34869915Y-53715984D02*
X34869306Y-53717002D01*
X34869306Y-53717002D02*
X34867495Y-53730572D01*
X34867495Y-53730572D02*
X34874317Y-53752733D01*
X34874317Y-53752733D02*
X34891460Y-53786478D01*
X34891460Y-53786478D02*
X34920607Y-53834800D01*
X34920607Y-53834800D02*
X34963445Y-53900692D01*
X34963445Y-53900692D02*
X35020552Y-53985517D01*
X35020552Y-53985517D02*
X35071234Y-54060177D01*
X35071234Y-54060177D02*
X35116539Y-54127140D01*
X35116539Y-54127140D02*
X35153850Y-54182516D01*
X35153850Y-54182516D02*
X35180548Y-54222420D01*
X35180548Y-54222420D02*
X35194015Y-54242962D01*
X35194015Y-54242962D02*
X35194863Y-54244356D01*
X35194863Y-54244356D02*
X35193219Y-54264038D01*
X35193219Y-54264038D02*
X35180755Y-54302293D01*
X35180755Y-54302293D02*
X35159952Y-54351889D01*
X35159952Y-54351889D02*
X35152538Y-54367728D01*
X35152538Y-54367728D02*
X35120186Y-54438290D01*
X35120186Y-54438290D02*
X35085672Y-54518353D01*
X35085672Y-54518353D02*
X35057635Y-54587629D01*
X35057635Y-54587629D02*
X35037432Y-54639045D01*
X35037432Y-54639045D02*
X35021385Y-54678119D01*
X35021385Y-54678119D02*
X35012112Y-54698541D01*
X35012112Y-54698541D02*
X35010959Y-54700114D01*
X35010959Y-54700114D02*
X34993904Y-54702721D01*
X34993904Y-54702721D02*
X34953702Y-54709863D01*
X34953702Y-54709863D02*
X34895698Y-54720523D01*
X34895698Y-54720523D02*
X34825237Y-54733685D01*
X34825237Y-54733685D02*
X34747665Y-54748333D01*
X34747665Y-54748333D02*
X34668328Y-54763449D01*
X34668328Y-54763449D02*
X34592569Y-54778018D01*
X34592569Y-54778018D02*
X34525736Y-54791022D01*
X34525736Y-54791022D02*
X34473172Y-54801445D01*
X34473172Y-54801445D02*
X34440224Y-54808270D01*
X34440224Y-54808270D02*
X34432143Y-54810199D01*
X34432143Y-54810199D02*
X34423795Y-54814962D01*
X34423795Y-54814962D02*
X34417494Y-54825718D01*
X34417494Y-54825718D02*
X34412955Y-54846098D01*
X34412955Y-54846098D02*
X34409896Y-54879734D01*
X34409896Y-54879734D02*
X34408033Y-54930255D01*
X34408033Y-54930255D02*
X34407082Y-55001292D01*
X34407082Y-55001292D02*
X34406760Y-55096476D01*
X34406760Y-55096476D02*
X34406743Y-55135492D01*
X34406743Y-55135492D02*
X34406743Y-55452799D01*
X34406743Y-55452799D02*
X34482943Y-55467839D01*
X34482943Y-55467839D02*
X34525337Y-55475995D01*
X34525337Y-55475995D02*
X34588600Y-55487899D01*
X34588600Y-55487899D02*
X34665038Y-55502116D01*
X34665038Y-55502116D02*
X34746957Y-55517210D01*
X34746957Y-55517210D02*
X34769600Y-55521355D01*
X34769600Y-55521355D02*
X34845194Y-55536053D01*
X34845194Y-55536053D02*
X34911047Y-55550505D01*
X34911047Y-55550505D02*
X34961634Y-55563375D01*
X34961634Y-55563375D02*
X34991426Y-55573322D01*
X34991426Y-55573322D02*
X34996388Y-55576287D01*
X34996388Y-55576287D02*
X35008574Y-55597283D01*
X35008574Y-55597283D02*
X35026047Y-55637967D01*
X35026047Y-55637967D02*
X35045423Y-55690322D01*
X35045423Y-55690322D02*
X35049266Y-55701600D01*
X35049266Y-55701600D02*
X35074661Y-55771523D01*
X35074661Y-55771523D02*
X35106183Y-55850418D01*
X35106183Y-55850418D02*
X35137031Y-55921266D01*
X35137031Y-55921266D02*
X35137183Y-55921595D01*
X35137183Y-55921595D02*
X35188553Y-56032733D01*
X35188553Y-56032733D02*
X35019601Y-56281253D01*
X35019601Y-56281253D02*
X34850648Y-56529772D01*
X34850648Y-56529772D02*
X35067571Y-56747058D01*
X35067571Y-56747058D02*
X35133181Y-56811726D01*
X35133181Y-56811726D02*
X35193021Y-56868733D01*
X35193021Y-56868733D02*
X35243733Y-56915033D01*
X35243733Y-56915033D02*
X35281954Y-56947584D01*
X35281954Y-56947584D02*
X35304325Y-56963343D01*
X35304325Y-56963343D02*
X35307534Y-56964343D01*
X35307534Y-56964343D02*
X35326374Y-56956469D01*
X35326374Y-56956469D02*
X35364820Y-56934578D01*
X35364820Y-56934578D02*
X35418670Y-56901267D01*
X35418670Y-56901267D02*
X35483724Y-56859131D01*
X35483724Y-56859131D02*
X35554060Y-56811943D01*
X35554060Y-56811943D02*
X35625445Y-56763810D01*
X35625445Y-56763810D02*
X35689092Y-56721928D01*
X35689092Y-56721928D02*
X35740959Y-56688871D01*
X35740959Y-56688871D02*
X35777005Y-56667218D01*
X35777005Y-56667218D02*
X35793133Y-56659543D01*
X35793133Y-56659543D02*
X35812811Y-56666037D01*
X35812811Y-56666037D02*
X35850125Y-56683150D01*
X35850125Y-56683150D02*
X35897379Y-56707326D01*
X35897379Y-56707326D02*
X35902388Y-56710013D01*
X35902388Y-56710013D02*
X35966023Y-56741927D01*
X35966023Y-56741927D02*
X36009659Y-56757579D01*
X36009659Y-56757579D02*
X36036798Y-56757745D01*
X36036798Y-56757745D02*
X36050943Y-56743204D01*
X36050943Y-56743204D02*
X36051025Y-56743000D01*
X36051025Y-56743000D02*
X36058095Y-56725779D01*
X36058095Y-56725779D02*
X36074958Y-56684899D01*
X36074958Y-56684899D02*
X36100305Y-56623525D01*
X36100305Y-56623525D02*
X36132829Y-56544819D01*
X36132829Y-56544819D02*
X36171222Y-56451947D01*
X36171222Y-56451947D02*
X36214178Y-56348072D01*
X36214178Y-56348072D02*
X36255778Y-56247502D01*
X36255778Y-56247502D02*
X36301496Y-56136516D01*
X36301496Y-56136516D02*
X36343474Y-56033703D01*
X36343474Y-56033703D02*
X36380452Y-55942215D01*
X36380452Y-55942215D02*
X36411173Y-55865201D01*
X36411173Y-55865201D02*
X36434378Y-55805815D01*
X36434378Y-55805815D02*
X36448810Y-55767209D01*
X36448810Y-55767209D02*
X36453257Y-55752800D01*
X36453257Y-55752800D02*
X36442104Y-55736272D01*
X36442104Y-55736272D02*
X36412931Y-55709930D01*
X36412931Y-55709930D02*
X36374029Y-55680887D01*
X36374029Y-55680887D02*
X36263243Y-55589039D01*
X36263243Y-55589039D02*
X36176649Y-55483759D01*
X36176649Y-55483759D02*
X36115284Y-55367266D01*
X36115284Y-55367266D02*
X36080185Y-55241776D01*
X36080185Y-55241776D02*
X36072392Y-55109507D01*
X36072392Y-55109507D02*
X36078057Y-55048457D01*
X36078057Y-55048457D02*
X36108922Y-54921795D01*
X36108922Y-54921795D02*
X36162080Y-54809941D01*
X36162080Y-54809941D02*
X36234233Y-54714001D01*
X36234233Y-54714001D02*
X36322083Y-54635076D01*
X36322083Y-54635076D02*
X36422335Y-54574270D01*
X36422335Y-54574270D02*
X36531690Y-54532687D01*
X36531690Y-54532687D02*
X36646853Y-54511428D01*
X36646853Y-54511428D02*
X36764525Y-54511599D01*
X36764525Y-54511599D02*
X36881410Y-54534301D01*
X36881410Y-54534301D02*
X36994211Y-54580638D01*
X36994211Y-54580638D02*
X37099631Y-54651713D01*
X37099631Y-54651713D02*
X37143632Y-54691911D01*
X37143632Y-54691911D02*
X37228021Y-54795129D01*
X37228021Y-54795129D02*
X37286778Y-54907925D01*
X37286778Y-54907925D02*
X37320296Y-55027010D01*
X37320296Y-55027010D02*
X37328965Y-55149095D01*
X37328965Y-55149095D02*
X37313177Y-55270893D01*
X37313177Y-55270893D02*
X37273322Y-55389116D01*
X37273322Y-55389116D02*
X37209793Y-55500475D01*
X37209793Y-55500475D02*
X37122979Y-55601684D01*
X37122979Y-55601684D02*
X37025971Y-55680887D01*
X37025971Y-55680887D02*
X36985563Y-55711162D01*
X36985563Y-55711162D02*
X36957018Y-55737219D01*
X36957018Y-55737219D02*
X36946743Y-55752825D01*
X36946743Y-55752825D02*
X36952123Y-55769843D01*
X36952123Y-55769843D02*
X36967425Y-55810500D01*
X36967425Y-55810500D02*
X36991388Y-55871642D01*
X36991388Y-55871642D02*
X37022756Y-55950119D01*
X37022756Y-55950119D02*
X37060268Y-56042780D01*
X37060268Y-56042780D02*
X37102667Y-56146472D01*
X37102667Y-56146472D02*
X37144337Y-56247526D01*
X37144337Y-56247526D02*
X37190310Y-56358607D01*
X37190310Y-56358607D02*
X37232893Y-56461541D01*
X37232893Y-56461541D02*
X37270779Y-56553165D01*
X37270779Y-56553165D02*
X37302660Y-56630316D01*
X37302660Y-56630316D02*
X37327229Y-56689831D01*
X37327229Y-56689831D02*
X37343180Y-56728544D01*
X37343180Y-56728544D02*
X37349090Y-56743000D01*
X37349090Y-56743000D02*
X37363052Y-56757685D01*
X37363052Y-56757685D02*
X37390060Y-56757642D01*
X37390060Y-56757642D02*
X37433587Y-56742099D01*
X37433587Y-56742099D02*
X37497110Y-56710284D01*
X37497110Y-56710284D02*
X37497612Y-56710013D01*
X37497612Y-56710013D02*
X37545440Y-56685323D01*
X37545440Y-56685323D02*
X37584103Y-56667338D01*
X37584103Y-56667338D02*
X37605905Y-56659614D01*
X37605905Y-56659614D02*
X37606867Y-56659543D01*
X37606867Y-56659543D02*
X37623279Y-56667378D01*
X37623279Y-56667378D02*
X37659513Y-56689165D01*
X37659513Y-56689165D02*
X37711526Y-56722328D01*
X37711526Y-56722328D02*
X37775275Y-56764291D01*
X37775275Y-56764291D02*
X37845940Y-56811943D01*
X37845940Y-56811943D02*
X37917884Y-56860191D01*
X37917884Y-56860191D02*
X37982726Y-56902151D01*
X37982726Y-56902151D02*
X38036265Y-56935227D01*
X38036265Y-56935227D02*
X38074303Y-56956821D01*
X38074303Y-56956821D02*
X38092467Y-56964343D01*
X38092467Y-56964343D02*
X38109192Y-56954457D01*
X38109192Y-56954457D02*
X38142820Y-56926826D01*
X38142820Y-56926826D02*
X38189990Y-56884495D01*
X38189990Y-56884495D02*
X38247342Y-56830505D01*
X38247342Y-56830505D02*
X38311516Y-56767899D01*
X38311516Y-56767899D02*
X38332503Y-56746983D01*
X38332503Y-56746983D02*
X38549501Y-56529623D01*
X38549501Y-56529623D02*
X38384332Y-56287220D01*
X38384332Y-56287220D02*
X38334136Y-56212781D01*
X38334136Y-56212781D02*
X38290081Y-56145972D01*
X38290081Y-56145972D02*
X38254638Y-56090665D01*
X38254638Y-56090665D02*
X38230281Y-56050729D01*
X38230281Y-56050729D02*
X38219478Y-56030036D01*
X38219478Y-56030036D02*
X38219162Y-56028563D01*
X38219162Y-56028563D02*
X38224857Y-56009058D01*
X38224857Y-56009058D02*
X38240174Y-55969822D01*
X38240174Y-55969822D02*
X38262463Y-55917430D01*
X38262463Y-55917430D02*
X38278107Y-55882355D01*
X38278107Y-55882355D02*
X38307359Y-55815201D01*
X38307359Y-55815201D02*
X38334906Y-55747358D01*
X38334906Y-55747358D02*
X38356263Y-55690034D01*
X38356263Y-55690034D02*
X38362065Y-55672572D01*
X38362065Y-55672572D02*
X38378548Y-55625938D01*
X38378548Y-55625938D02*
X38394660Y-55589905D01*
X38394660Y-55589905D02*
X38403510Y-55576287D01*
X38403510Y-55576287D02*
X38423040Y-55567952D01*
X38423040Y-55567952D02*
X38465666Y-55556137D01*
X38465666Y-55556137D02*
X38525855Y-55542181D01*
X38525855Y-55542181D02*
X38598078Y-55527422D01*
X38598078Y-55527422D02*
X38630400Y-55521355D01*
X38630400Y-55521355D02*
X38712478Y-55506273D01*
X38712478Y-55506273D02*
X38791205Y-55491669D01*
X38791205Y-55491669D02*
X38858891Y-55478980D01*
X38858891Y-55478980D02*
X38907840Y-55469642D01*
X38907840Y-55469642D02*
X38917057Y-55467839D01*
X38917057Y-55467839D02*
X38993257Y-55452799D01*
X38993257Y-55452799D02*
X38993257Y-55135492D01*
X38993257Y-55135492D02*
X38993086Y-55031154D01*
X38993086Y-55031154D02*
X38992384Y-54952213D01*
X38992384Y-54952213D02*
X38990866Y-54895038D01*
X38990866Y-54895038D02*
X38988251Y-54855999D01*
X38988251Y-54855999D02*
X38984254Y-54831465D01*
X38984254Y-54831465D02*
X38978591Y-54817805D01*
X38978591Y-54817805D02*
X38970980Y-54811389D01*
X38970980Y-54811389D02*
X38967857Y-54810199D01*
X38967857Y-54810199D02*
X38949022Y-54805980D01*
X38949022Y-54805980D02*
X38907412Y-54797562D01*
X38907412Y-54797562D02*
X38848370Y-54785961D01*
X38848370Y-54785961D02*
X38777243Y-54772195D01*
X38777243Y-54772195D02*
X38699375Y-54757280D01*
X38699375Y-54757280D02*
X38620113Y-54742232D01*
X38620113Y-54742232D02*
X38544802Y-54728069D01*
X38544802Y-54728069D02*
X38478787Y-54715806D01*
X38478787Y-54715806D02*
X38427413Y-54706461D01*
X38427413Y-54706461D02*
X38396025Y-54701050D01*
X38396025Y-54701050D02*
X38389041Y-54700114D01*
X38389041Y-54700114D02*
X38382715Y-54687596D01*
X38382715Y-54687596D02*
X38368710Y-54654246D01*
X38368710Y-54654246D02*
X38349645Y-54606377D01*
X38349645Y-54606377D02*
X38342366Y-54587629D01*
X38342366Y-54587629D02*
X38313004Y-54515195D01*
X38313004Y-54515195D02*
X38278429Y-54435170D01*
X38278429Y-54435170D02*
X38247463Y-54367728D01*
X38247463Y-54367728D02*
X38224677Y-54316159D01*
X38224677Y-54316159D02*
X38209518Y-54273785D01*
X38209518Y-54273785D02*
X38204458Y-54247834D01*
X38204458Y-54247834D02*
X38205264Y-54244356D01*
X38205264Y-54244356D02*
X38215959Y-54227936D01*
X38215959Y-54227936D02*
X38240380Y-54191417D01*
X38240380Y-54191417D02*
X38275905Y-54138687D01*
X38275905Y-54138687D02*
X38319913Y-54073635D01*
X38319913Y-54073635D02*
X38369783Y-54000151D01*
X38369783Y-54000151D02*
X38379644Y-53985645D01*
X38379644Y-53985645D02*
X38437508Y-53899704D01*
X38437508Y-53899704D02*
X38480044Y-53834261D01*
X38480044Y-53834261D02*
X38508946Y-53786304D01*
X38508946Y-53786304D02*
X38525910Y-53752820D01*
X38525910Y-53752820D02*
X38532633Y-53730795D01*
X38532633Y-53730795D02*
X38530810Y-53717217D01*
X38530810Y-53717217D02*
X38530764Y-53717131D01*
X38530764Y-53717131D02*
X38516414Y-53699297D01*
X38516414Y-53699297D02*
X38484677Y-53664817D01*
X38484677Y-53664817D02*
X38438990Y-53617268D01*
X38438990Y-53617268D02*
X38382796Y-53560222D01*
X38382796Y-53560222D02*
X38319532Y-53497255D01*
X38319532Y-53497255D02*
X38312398Y-53490227D01*
X38312398Y-53490227D02*
X38232670Y-53413020D01*
X38232670Y-53413020D02*
X38171143Y-53356330D01*
X38171143Y-53356330D02*
X38126579Y-53319110D01*
X38126579Y-53319110D02*
X38097743Y-53300315D01*
X38097743Y-53300315D02*
X38085042Y-53297889D01*
X38085042Y-53297889D02*
X38066506Y-53308471D01*
X38066506Y-53308471D02*
X38028039Y-53332916D01*
X38028039Y-53332916D02*
X37973614Y-53368612D01*
X37973614Y-53368612D02*
X37907202Y-53412947D01*
X37907202Y-53412947D02*
X37832775Y-53463311D01*
X37832775Y-53463311D02*
X37815399Y-53475160D01*
X37815399Y-53475160D02*
X37568703Y-53643626D01*
X37568703Y-53643626D02*
X37457294Y-53593062D01*
X37457294Y-53593062D02*
X37389543Y-53563595D01*
X37389543Y-53563595D02*
X37316817Y-53533959D01*
X37316817Y-53533959D02*
X37254297Y-53510330D01*
X37254297Y-53510330D02*
X37251543Y-53509358D01*
X37251543Y-53509358D02*
X37202640Y-53491457D01*
X37202640Y-53491457D02*
X37164943Y-53476320D01*
X37164943Y-53476320D02*
X37146575Y-53467210D01*
X37146575Y-53467210D02*
X37146544Y-53467184D01*
X37146544Y-53467184D02*
X37140715Y-53450717D01*
X37140715Y-53450717D02*
X37130808Y-53410219D01*
X37130808Y-53410219D02*
X37117805Y-53350242D01*
X37117805Y-53350242D02*
X37102691Y-53275340D01*
X37102691Y-53275340D02*
X37086448Y-53190064D01*
X37086448Y-53190064D02*
X37085119Y-53182875D01*
X37085119Y-53182875D02*
X37068825Y-53095014D01*
X37068825Y-53095014D02*
X37053867Y-53015260D01*
X37053867Y-53015260D02*
X37041209Y-52948681D01*
X37041209Y-52948681D02*
X37031814Y-52900347D01*
X37031814Y-52900347D02*
X37026646Y-52875325D01*
X37026646Y-52875325D02*
X37026556Y-52874943D01*
X37026556Y-52874943D02*
X37023411Y-52864299D01*
X37023411Y-52864299D02*
X37017296Y-52856262D01*
X37017296Y-52856262D02*
X37004547Y-52850467D01*
X37004547Y-52850467D02*
X36981500Y-52846547D01*
X36981500Y-52846547D02*
X36944491Y-52844135D01*
X36944491Y-52844135D02*
X36889856Y-52842865D01*
X36889856Y-52842865D02*
X36813933Y-52842371D01*
X36813933Y-52842371D02*
X36713056Y-52842286D01*
X36713056Y-52842286D02*
X36700000Y-52842286D01*
X36700000Y-52842286D02*
X36596090Y-52842348D01*
X36596090Y-52842348D02*
X36596090Y-52842348D01*
G36*
X36813933Y-52842371D02*
G01*
X36889856Y-52842865D01*
X36944491Y-52844135D01*
X36981500Y-52846547D01*
X37004547Y-52850467D01*
X37017296Y-52856262D01*
X37023411Y-52864299D01*
X37026556Y-52874943D01*
X37026646Y-52875325D01*
X37031814Y-52900347D01*
X37041209Y-52948681D01*
X37053867Y-53015260D01*
X37068825Y-53095014D01*
X37085119Y-53182875D01*
X37086448Y-53190064D01*
X37102691Y-53275340D01*
X37117805Y-53350242D01*
X37130808Y-53410219D01*
X37140715Y-53450717D01*
X37146544Y-53467184D01*
X37146575Y-53467210D01*
X37164943Y-53476320D01*
X37202640Y-53491457D01*
X37251543Y-53509358D01*
X37254297Y-53510330D01*
X37316817Y-53533959D01*
X37389543Y-53563595D01*
X37457294Y-53593062D01*
X37568703Y-53643626D01*
X37815399Y-53475160D01*
X37832775Y-53463311D01*
X37907202Y-53412947D01*
X37973614Y-53368612D01*
X38028039Y-53332916D01*
X38066506Y-53308471D01*
X38085042Y-53297889D01*
X38097743Y-53300315D01*
X38126579Y-53319110D01*
X38171143Y-53356330D01*
X38232670Y-53413020D01*
X38312398Y-53490227D01*
X38319532Y-53497255D01*
X38382796Y-53560222D01*
X38438990Y-53617268D01*
X38484677Y-53664817D01*
X38516414Y-53699297D01*
X38530764Y-53717131D01*
X38530810Y-53717217D01*
X38532633Y-53730795D01*
X38525910Y-53752820D01*
X38508946Y-53786304D01*
X38480044Y-53834261D01*
X38437508Y-53899704D01*
X38379644Y-53985645D01*
X38369783Y-54000151D01*
X38319913Y-54073635D01*
X38275905Y-54138687D01*
X38240380Y-54191417D01*
X38215959Y-54227936D01*
X38205264Y-54244356D01*
X38204458Y-54247834D01*
X38209518Y-54273785D01*
X38224677Y-54316159D01*
X38247463Y-54367728D01*
X38278429Y-54435170D01*
X38313004Y-54515195D01*
X38342366Y-54587629D01*
X38349645Y-54606377D01*
X38368710Y-54654246D01*
X38382715Y-54687596D01*
X38389041Y-54700114D01*
X38396025Y-54701050D01*
X38427413Y-54706461D01*
X38478787Y-54715806D01*
X38544802Y-54728069D01*
X38620113Y-54742232D01*
X38699375Y-54757280D01*
X38777243Y-54772195D01*
X38848370Y-54785961D01*
X38907412Y-54797562D01*
X38949022Y-54805980D01*
X38967857Y-54810199D01*
X38970980Y-54811389D01*
X38978591Y-54817805D01*
X38984254Y-54831465D01*
X38988251Y-54855999D01*
X38990866Y-54895038D01*
X38992384Y-54952213D01*
X38993086Y-55031154D01*
X38993257Y-55135492D01*
X38993257Y-55452799D01*
X38917057Y-55467839D01*
X38907840Y-55469642D01*
X38858891Y-55478980D01*
X38791205Y-55491669D01*
X38712478Y-55506273D01*
X38630400Y-55521355D01*
X38598078Y-55527422D01*
X38525855Y-55542181D01*
X38465666Y-55556137D01*
X38423040Y-55567952D01*
X38403510Y-55576287D01*
X38394660Y-55589905D01*
X38378548Y-55625938D01*
X38362065Y-55672572D01*
X38356263Y-55690034D01*
X38334906Y-55747358D01*
X38307359Y-55815201D01*
X38278107Y-55882355D01*
X38262463Y-55917430D01*
X38240174Y-55969822D01*
X38224857Y-56009058D01*
X38219162Y-56028563D01*
X38219478Y-56030036D01*
X38230281Y-56050729D01*
X38254638Y-56090665D01*
X38290081Y-56145972D01*
X38334136Y-56212781D01*
X38384332Y-56287220D01*
X38549501Y-56529623D01*
X38332503Y-56746983D01*
X38311516Y-56767899D01*
X38247342Y-56830505D01*
X38189990Y-56884495D01*
X38142820Y-56926826D01*
X38109192Y-56954457D01*
X38092467Y-56964343D01*
X38074303Y-56956821D01*
X38036265Y-56935227D01*
X37982726Y-56902151D01*
X37917884Y-56860191D01*
X37845940Y-56811943D01*
X37775275Y-56764291D01*
X37711526Y-56722328D01*
X37659513Y-56689165D01*
X37623279Y-56667378D01*
X37606867Y-56659543D01*
X37605905Y-56659614D01*
X37584103Y-56667338D01*
X37545440Y-56685323D01*
X37497612Y-56710013D01*
X37497110Y-56710284D01*
X37433587Y-56742099D01*
X37390060Y-56757642D01*
X37363052Y-56757685D01*
X37349090Y-56743000D01*
X37343180Y-56728544D01*
X37327229Y-56689831D01*
X37302660Y-56630316D01*
X37270779Y-56553165D01*
X37232893Y-56461541D01*
X37190310Y-56358607D01*
X37144337Y-56247526D01*
X37102667Y-56146472D01*
X37060268Y-56042780D01*
X37022756Y-55950119D01*
X36991388Y-55871642D01*
X36967425Y-55810500D01*
X36952123Y-55769843D01*
X36946743Y-55752825D01*
X36957018Y-55737219D01*
X36985563Y-55711162D01*
X37025971Y-55680887D01*
X37122979Y-55601684D01*
X37209793Y-55500475D01*
X37273322Y-55389116D01*
X37313177Y-55270893D01*
X37328965Y-55149095D01*
X37320296Y-55027010D01*
X37286778Y-54907925D01*
X37228021Y-54795129D01*
X37143632Y-54691911D01*
X37099631Y-54651713D01*
X36994211Y-54580638D01*
X36881410Y-54534301D01*
X36764525Y-54511599D01*
X36646853Y-54511428D01*
X36531690Y-54532687D01*
X36422335Y-54574270D01*
X36322083Y-54635076D01*
X36234233Y-54714001D01*
X36162080Y-54809941D01*
X36108922Y-54921795D01*
X36078057Y-55048457D01*
X36072392Y-55109507D01*
X36080185Y-55241776D01*
X36115284Y-55367266D01*
X36176649Y-55483759D01*
X36263243Y-55589039D01*
X36374029Y-55680887D01*
X36412931Y-55709930D01*
X36442104Y-55736272D01*
X36453257Y-55752800D01*
X36448810Y-55767209D01*
X36434378Y-55805815D01*
X36411173Y-55865201D01*
X36380452Y-55942215D01*
X36343474Y-56033703D01*
X36301496Y-56136516D01*
X36255778Y-56247502D01*
X36214178Y-56348072D01*
X36171222Y-56451947D01*
X36132829Y-56544819D01*
X36100305Y-56623525D01*
X36074958Y-56684899D01*
X36058095Y-56725779D01*
X36051025Y-56743000D01*
X36050943Y-56743204D01*
X36036798Y-56757745D01*
X36009659Y-56757579D01*
X35966023Y-56741927D01*
X35902388Y-56710013D01*
X35897379Y-56707326D01*
X35850125Y-56683150D01*
X35812811Y-56666037D01*
X35793133Y-56659543D01*
X35777005Y-56667218D01*
X35740959Y-56688871D01*
X35689092Y-56721928D01*
X35625445Y-56763810D01*
X35554060Y-56811943D01*
X35483724Y-56859131D01*
X35418670Y-56901267D01*
X35364820Y-56934578D01*
X35326374Y-56956469D01*
X35307534Y-56964343D01*
X35304325Y-56963343D01*
X35281954Y-56947584D01*
X35243733Y-56915033D01*
X35193021Y-56868733D01*
X35133181Y-56811726D01*
X35067571Y-56747058D01*
X34850648Y-56529772D01*
X35019601Y-56281253D01*
X35188553Y-56032733D01*
X35137183Y-55921595D01*
X35137031Y-55921266D01*
X35106183Y-55850418D01*
X35074661Y-55771523D01*
X35049266Y-55701600D01*
X35045423Y-55690322D01*
X35026047Y-55637967D01*
X35008574Y-55597283D01*
X34996388Y-55576287D01*
X34991426Y-55573322D01*
X34961634Y-55563375D01*
X34911047Y-55550505D01*
X34845194Y-55536053D01*
X34769600Y-55521355D01*
X34746957Y-55517210D01*
X34665038Y-55502116D01*
X34588600Y-55487899D01*
X34525337Y-55475995D01*
X34482943Y-55467839D01*
X34406743Y-55452799D01*
X34406743Y-55135492D01*
X34406760Y-55096476D01*
X34407082Y-55001292D01*
X34408033Y-54930255D01*
X34409896Y-54879734D01*
X34412955Y-54846098D01*
X34417494Y-54825718D01*
X34423795Y-54814962D01*
X34432143Y-54810199D01*
X34440224Y-54808270D01*
X34473172Y-54801445D01*
X34525736Y-54791022D01*
X34592569Y-54778018D01*
X34668328Y-54763449D01*
X34747665Y-54748333D01*
X34825237Y-54733685D01*
X34895698Y-54720523D01*
X34953702Y-54709863D01*
X34993904Y-54702721D01*
X35010959Y-54700114D01*
X35012112Y-54698541D01*
X35021385Y-54678119D01*
X35037432Y-54639045D01*
X35057635Y-54587629D01*
X35085672Y-54518353D01*
X35120186Y-54438290D01*
X35152538Y-54367728D01*
X35159952Y-54351889D01*
X35180755Y-54302293D01*
X35193219Y-54264038D01*
X35194863Y-54244356D01*
X35194015Y-54242962D01*
X35180548Y-54222420D01*
X35153850Y-54182516D01*
X35116539Y-54127140D01*
X35071234Y-54060177D01*
X35020552Y-53985517D01*
X34963445Y-53900692D01*
X34920607Y-53834800D01*
X34891460Y-53786478D01*
X34874317Y-53752733D01*
X34867495Y-53730572D01*
X34869306Y-53717002D01*
X34869915Y-53715984D01*
X34886297Y-53696210D01*
X34919695Y-53660175D01*
X34966671Y-53611451D01*
X35023786Y-53553612D01*
X35087603Y-53490227D01*
X35153802Y-53425905D01*
X35218648Y-53365447D01*
X35266299Y-53324655D01*
X35297990Y-53302484D01*
X35314958Y-53297889D01*
X35317175Y-53298921D01*
X35340524Y-53312837D01*
X35382912Y-53340030D01*
X35440369Y-53377889D01*
X35508923Y-53423803D01*
X35584601Y-53475160D01*
X35831298Y-53643626D01*
X35942706Y-53593062D01*
X35945943Y-53591597D01*
X36014343Y-53561965D01*
X36086907Y-53532493D01*
X36148457Y-53509358D01*
X36148729Y-53509262D01*
X36197595Y-53491367D01*
X36235212Y-53476253D01*
X36253457Y-53467184D01*
X36253752Y-53466855D01*
X36259946Y-53448282D01*
X36270139Y-53406045D01*
X36283348Y-53344696D01*
X36298590Y-53268789D01*
X36314881Y-53182875D01*
X36315449Y-53179796D01*
X36331713Y-53092128D01*
X36346608Y-53012741D01*
X36359171Y-52946701D01*
X36368438Y-52899079D01*
X36373444Y-52874943D01*
X36373764Y-52873605D01*
X36377060Y-52863273D01*
X36383738Y-52855506D01*
X36397462Y-52849940D01*
X36421895Y-52846207D01*
X36460702Y-52843942D01*
X36517546Y-52842778D01*
X36596090Y-52842348D01*
X36700000Y-52842286D01*
X36713056Y-52842286D01*
X36813933Y-52842371D01*
G37*
X36813933Y-52842371D02*
X36889856Y-52842865D01*
X36944491Y-52844135D01*
X36981500Y-52846547D01*
X37004547Y-52850467D01*
X37017296Y-52856262D01*
X37023411Y-52864299D01*
X37026556Y-52874943D01*
X37026646Y-52875325D01*
X37031814Y-52900347D01*
X37041209Y-52948681D01*
X37053867Y-53015260D01*
X37068825Y-53095014D01*
X37085119Y-53182875D01*
X37086448Y-53190064D01*
X37102691Y-53275340D01*
X37117805Y-53350242D01*
X37130808Y-53410219D01*
X37140715Y-53450717D01*
X37146544Y-53467184D01*
X37146575Y-53467210D01*
X37164943Y-53476320D01*
X37202640Y-53491457D01*
X37251543Y-53509358D01*
X37254297Y-53510330D01*
X37316817Y-53533959D01*
X37389543Y-53563595D01*
X37457294Y-53593062D01*
X37568703Y-53643626D01*
X37815399Y-53475160D01*
X37832775Y-53463311D01*
X37907202Y-53412947D01*
X37973614Y-53368612D01*
X38028039Y-53332916D01*
X38066506Y-53308471D01*
X38085042Y-53297889D01*
X38097743Y-53300315D01*
X38126579Y-53319110D01*
X38171143Y-53356330D01*
X38232670Y-53413020D01*
X38312398Y-53490227D01*
X38319532Y-53497255D01*
X38382796Y-53560222D01*
X38438990Y-53617268D01*
X38484677Y-53664817D01*
X38516414Y-53699297D01*
X38530764Y-53717131D01*
X38530810Y-53717217D01*
X38532633Y-53730795D01*
X38525910Y-53752820D01*
X38508946Y-53786304D01*
X38480044Y-53834261D01*
X38437508Y-53899704D01*
X38379644Y-53985645D01*
X38369783Y-54000151D01*
X38319913Y-54073635D01*
X38275905Y-54138687D01*
X38240380Y-54191417D01*
X38215959Y-54227936D01*
X38205264Y-54244356D01*
X38204458Y-54247834D01*
X38209518Y-54273785D01*
X38224677Y-54316159D01*
X38247463Y-54367728D01*
X38278429Y-54435170D01*
X38313004Y-54515195D01*
X38342366Y-54587629D01*
X38349645Y-54606377D01*
X38368710Y-54654246D01*
X38382715Y-54687596D01*
X38389041Y-54700114D01*
X38396025Y-54701050D01*
X38427413Y-54706461D01*
X38478787Y-54715806D01*
X38544802Y-54728069D01*
X38620113Y-54742232D01*
X38699375Y-54757280D01*
X38777243Y-54772195D01*
X38848370Y-54785961D01*
X38907412Y-54797562D01*
X38949022Y-54805980D01*
X38967857Y-54810199D01*
X38970980Y-54811389D01*
X38978591Y-54817805D01*
X38984254Y-54831465D01*
X38988251Y-54855999D01*
X38990866Y-54895038D01*
X38992384Y-54952213D01*
X38993086Y-55031154D01*
X38993257Y-55135492D01*
X38993257Y-55452799D01*
X38917057Y-55467839D01*
X38907840Y-55469642D01*
X38858891Y-55478980D01*
X38791205Y-55491669D01*
X38712478Y-55506273D01*
X38630400Y-55521355D01*
X38598078Y-55527422D01*
X38525855Y-55542181D01*
X38465666Y-55556137D01*
X38423040Y-55567952D01*
X38403510Y-55576287D01*
X38394660Y-55589905D01*
X38378548Y-55625938D01*
X38362065Y-55672572D01*
X38356263Y-55690034D01*
X38334906Y-55747358D01*
X38307359Y-55815201D01*
X38278107Y-55882355D01*
X38262463Y-55917430D01*
X38240174Y-55969822D01*
X38224857Y-56009058D01*
X38219162Y-56028563D01*
X38219478Y-56030036D01*
X38230281Y-56050729D01*
X38254638Y-56090665D01*
X38290081Y-56145972D01*
X38334136Y-56212781D01*
X38384332Y-56287220D01*
X38549501Y-56529623D01*
X38332503Y-56746983D01*
X38311516Y-56767899D01*
X38247342Y-56830505D01*
X38189990Y-56884495D01*
X38142820Y-56926826D01*
X38109192Y-56954457D01*
X38092467Y-56964343D01*
X38074303Y-56956821D01*
X38036265Y-56935227D01*
X37982726Y-56902151D01*
X37917884Y-56860191D01*
X37845940Y-56811943D01*
X37775275Y-56764291D01*
X37711526Y-56722328D01*
X37659513Y-56689165D01*
X37623279Y-56667378D01*
X37606867Y-56659543D01*
X37605905Y-56659614D01*
X37584103Y-56667338D01*
X37545440Y-56685323D01*
X37497612Y-56710013D01*
X37497110Y-56710284D01*
X37433587Y-56742099D01*
X37390060Y-56757642D01*
X37363052Y-56757685D01*
X37349090Y-56743000D01*
X37343180Y-56728544D01*
X37327229Y-56689831D01*
X37302660Y-56630316D01*
X37270779Y-56553165D01*
X37232893Y-56461541D01*
X37190310Y-56358607D01*
X37144337Y-56247526D01*
X37102667Y-56146472D01*
X37060268Y-56042780D01*
X37022756Y-55950119D01*
X36991388Y-55871642D01*
X36967425Y-55810500D01*
X36952123Y-55769843D01*
X36946743Y-55752825D01*
X36957018Y-55737219D01*
X36985563Y-55711162D01*
X37025971Y-55680887D01*
X37122979Y-55601684D01*
X37209793Y-55500475D01*
X37273322Y-55389116D01*
X37313177Y-55270893D01*
X37328965Y-55149095D01*
X37320296Y-55027010D01*
X37286778Y-54907925D01*
X37228021Y-54795129D01*
X37143632Y-54691911D01*
X37099631Y-54651713D01*
X36994211Y-54580638D01*
X36881410Y-54534301D01*
X36764525Y-54511599D01*
X36646853Y-54511428D01*
X36531690Y-54532687D01*
X36422335Y-54574270D01*
X36322083Y-54635076D01*
X36234233Y-54714001D01*
X36162080Y-54809941D01*
X36108922Y-54921795D01*
X36078057Y-55048457D01*
X36072392Y-55109507D01*
X36080185Y-55241776D01*
X36115284Y-55367266D01*
X36176649Y-55483759D01*
X36263243Y-55589039D01*
X36374029Y-55680887D01*
X36412931Y-55709930D01*
X36442104Y-55736272D01*
X36453257Y-55752800D01*
X36448810Y-55767209D01*
X36434378Y-55805815D01*
X36411173Y-55865201D01*
X36380452Y-55942215D01*
X36343474Y-56033703D01*
X36301496Y-56136516D01*
X36255778Y-56247502D01*
X36214178Y-56348072D01*
X36171222Y-56451947D01*
X36132829Y-56544819D01*
X36100305Y-56623525D01*
X36074958Y-56684899D01*
X36058095Y-56725779D01*
X36051025Y-56743000D01*
X36050943Y-56743204D01*
X36036798Y-56757745D01*
X36009659Y-56757579D01*
X35966023Y-56741927D01*
X35902388Y-56710013D01*
X35897379Y-56707326D01*
X35850125Y-56683150D01*
X35812811Y-56666037D01*
X35793133Y-56659543D01*
X35777005Y-56667218D01*
X35740959Y-56688871D01*
X35689092Y-56721928D01*
X35625445Y-56763810D01*
X35554060Y-56811943D01*
X35483724Y-56859131D01*
X35418670Y-56901267D01*
X35364820Y-56934578D01*
X35326374Y-56956469D01*
X35307534Y-56964343D01*
X35304325Y-56963343D01*
X35281954Y-56947584D01*
X35243733Y-56915033D01*
X35193021Y-56868733D01*
X35133181Y-56811726D01*
X35067571Y-56747058D01*
X34850648Y-56529772D01*
X35019601Y-56281253D01*
X35188553Y-56032733D01*
X35137183Y-55921595D01*
X35137031Y-55921266D01*
X35106183Y-55850418D01*
X35074661Y-55771523D01*
X35049266Y-55701600D01*
X35045423Y-55690322D01*
X35026047Y-55637967D01*
X35008574Y-55597283D01*
X34996388Y-55576287D01*
X34991426Y-55573322D01*
X34961634Y-55563375D01*
X34911047Y-55550505D01*
X34845194Y-55536053D01*
X34769600Y-55521355D01*
X34746957Y-55517210D01*
X34665038Y-55502116D01*
X34588600Y-55487899D01*
X34525337Y-55475995D01*
X34482943Y-55467839D01*
X34406743Y-55452799D01*
X34406743Y-55135492D01*
X34406760Y-55096476D01*
X34407082Y-55001292D01*
X34408033Y-54930255D01*
X34409896Y-54879734D01*
X34412955Y-54846098D01*
X34417494Y-54825718D01*
X34423795Y-54814962D01*
X34432143Y-54810199D01*
X34440224Y-54808270D01*
X34473172Y-54801445D01*
X34525736Y-54791022D01*
X34592569Y-54778018D01*
X34668328Y-54763449D01*
X34747665Y-54748333D01*
X34825237Y-54733685D01*
X34895698Y-54720523D01*
X34953702Y-54709863D01*
X34993904Y-54702721D01*
X35010959Y-54700114D01*
X35012112Y-54698541D01*
X35021385Y-54678119D01*
X35037432Y-54639045D01*
X35057635Y-54587629D01*
X35085672Y-54518353D01*
X35120186Y-54438290D01*
X35152538Y-54367728D01*
X35159952Y-54351889D01*
X35180755Y-54302293D01*
X35193219Y-54264038D01*
X35194863Y-54244356D01*
X35194015Y-54242962D01*
X35180548Y-54222420D01*
X35153850Y-54182516D01*
X35116539Y-54127140D01*
X35071234Y-54060177D01*
X35020552Y-53985517D01*
X34963445Y-53900692D01*
X34920607Y-53834800D01*
X34891460Y-53786478D01*
X34874317Y-53752733D01*
X34867495Y-53730572D01*
X34869306Y-53717002D01*
X34869915Y-53715984D01*
X34886297Y-53696210D01*
X34919695Y-53660175D01*
X34966671Y-53611451D01*
X35023786Y-53553612D01*
X35087603Y-53490227D01*
X35153802Y-53425905D01*
X35218648Y-53365447D01*
X35266299Y-53324655D01*
X35297990Y-53302484D01*
X35314958Y-53297889D01*
X35317175Y-53298921D01*
X35340524Y-53312837D01*
X35382912Y-53340030D01*
X35440369Y-53377889D01*
X35508923Y-53423803D01*
X35584601Y-53475160D01*
X35831298Y-53643626D01*
X35942706Y-53593062D01*
X35945943Y-53591597D01*
X36014343Y-53561965D01*
X36086907Y-53532493D01*
X36148457Y-53509358D01*
X36148729Y-53509262D01*
X36197595Y-53491367D01*
X36235212Y-53476253D01*
X36253457Y-53467184D01*
X36253752Y-53466855D01*
X36259946Y-53448282D01*
X36270139Y-53406045D01*
X36283348Y-53344696D01*
X36298590Y-53268789D01*
X36314881Y-53182875D01*
X36315449Y-53179796D01*
X36331713Y-53092128D01*
X36346608Y-53012741D01*
X36359171Y-52946701D01*
X36368438Y-52899079D01*
X36373444Y-52874943D01*
X36373764Y-52873605D01*
X36377060Y-52863273D01*
X36383738Y-52855506D01*
X36397462Y-52849940D01*
X36421895Y-52846207D01*
X36460702Y-52843942D01*
X36517546Y-52842778D01*
X36596090Y-52842348D01*
X36700000Y-52842286D01*
X36713056Y-52842286D01*
X36813933Y-52842371D01*
X34555124Y-57556335D02*
X34513333Y-57575344D01*
X34513333Y-57575344D02*
X34480531Y-57598378D01*
X34480531Y-57598378D02*
X34456497Y-57624133D01*
X34456497Y-57624133D02*
X34439903Y-57657358D01*
X34439903Y-57657358D02*
X34429423Y-57702800D01*
X34429423Y-57702800D02*
X34423729Y-57765207D01*
X34423729Y-57765207D02*
X34421493Y-57849327D01*
X34421493Y-57849327D02*
X34421257Y-57904721D01*
X34421257Y-57904721D02*
X34421257Y-58120826D01*
X34421257Y-58120826D02*
X34458226Y-58137670D01*
X34458226Y-58137670D02*
X34487344Y-58149981D01*
X34487344Y-58149981D02*
X34501769Y-58154514D01*
X34501769Y-58154514D02*
X34504528Y-58141025D01*
X34504528Y-58141025D02*
X34506718Y-58104653D01*
X34506718Y-58104653D02*
X34508058Y-58051542D01*
X34508058Y-58051542D02*
X34508343Y-58009372D01*
X34508343Y-58009372D02*
X34509566Y-57948447D01*
X34509566Y-57948447D02*
X34512864Y-57900115D01*
X34512864Y-57900115D02*
X34517679Y-57870518D01*
X34517679Y-57870518D02*
X34521504Y-57864229D01*
X34521504Y-57864229D02*
X34547217Y-57870652D01*
X34547217Y-57870652D02*
X34587582Y-57887125D01*
X34587582Y-57887125D02*
X34634321Y-57909458D01*
X34634321Y-57909458D02*
X34679155Y-57933457D01*
X34679155Y-57933457D02*
X34713807Y-57954930D01*
X34713807Y-57954930D02*
X34729998Y-57969685D01*
X34729998Y-57969685D02*
X34730062Y-57969845D01*
X34730062Y-57969845D02*
X34728670Y-57997152D01*
X34728670Y-57997152D02*
X34716182Y-58023219D01*
X34716182Y-58023219D02*
X34694257Y-58044392D01*
X34694257Y-58044392D02*
X34662257Y-58051474D01*
X34662257Y-58051474D02*
X34634908Y-58050649D01*
X34634908Y-58050649D02*
X34596174Y-58050042D01*
X34596174Y-58050042D02*
X34575842Y-58059116D01*
X34575842Y-58059116D02*
X34563631Y-58083092D01*
X34563631Y-58083092D02*
X34562091Y-58087613D01*
X34562091Y-58087613D02*
X34556797Y-58121806D01*
X34556797Y-58121806D02*
X34570953Y-58142568D01*
X34570953Y-58142568D02*
X34607852Y-58152462D01*
X34607852Y-58152462D02*
X34647711Y-58154292D01*
X34647711Y-58154292D02*
X34719438Y-58140727D01*
X34719438Y-58140727D02*
X34756568Y-58121355D01*
X34756568Y-58121355D02*
X34802424Y-58075845D01*
X34802424Y-58075845D02*
X34826744Y-58019983D01*
X34826744Y-58019983D02*
X34828927Y-57960957D01*
X34828927Y-57960957D02*
X34808371Y-57905953D01*
X34808371Y-57905953D02*
X34777451Y-57871486D01*
X34777451Y-57871486D02*
X34746580Y-57852189D01*
X34746580Y-57852189D02*
X34698058Y-57827759D01*
X34698058Y-57827759D02*
X34641515Y-57802985D01*
X34641515Y-57802985D02*
X34632090Y-57799199D01*
X34632090Y-57799199D02*
X34569981Y-57771791D01*
X34569981Y-57771791D02*
X34534178Y-57747634D01*
X34534178Y-57747634D02*
X34522663Y-57723619D01*
X34522663Y-57723619D02*
X34533420Y-57696635D01*
X34533420Y-57696635D02*
X34551886Y-57675543D01*
X34551886Y-57675543D02*
X34595531Y-57649572D01*
X34595531Y-57649572D02*
X34643554Y-57647624D01*
X34643554Y-57647624D02*
X34687594Y-57667637D01*
X34687594Y-57667637D02*
X34719291Y-57707551D01*
X34719291Y-57707551D02*
X34723451Y-57717848D01*
X34723451Y-57717848D02*
X34747673Y-57755724D01*
X34747673Y-57755724D02*
X34783035Y-57783842D01*
X34783035Y-57783842D02*
X34827657Y-57806917D01*
X34827657Y-57806917D02*
X34827657Y-57741485D01*
X34827657Y-57741485D02*
X34825031Y-57701506D01*
X34825031Y-57701506D02*
X34813770Y-57669997D01*
X34813770Y-57669997D02*
X34788801Y-57636378D01*
X34788801Y-57636378D02*
X34764831Y-57610484D01*
X34764831Y-57610484D02*
X34727559Y-57573817D01*
X34727559Y-57573817D02*
X34698599Y-57554121D01*
X34698599Y-57554121D02*
X34667495Y-57546220D01*
X34667495Y-57546220D02*
X34632287Y-57544914D01*
X34632287Y-57544914D02*
X34555124Y-57556335D01*
X34555124Y-57556335D02*
X34555124Y-57556335D01*
G36*
X34667495Y-57546220D02*
G01*
X34698599Y-57554121D01*
X34727559Y-57573817D01*
X34764831Y-57610484D01*
X34788801Y-57636378D01*
X34813770Y-57669997D01*
X34825031Y-57701506D01*
X34827657Y-57741485D01*
X34827657Y-57806917D01*
X34783035Y-57783842D01*
X34747673Y-57755724D01*
X34723451Y-57717848D01*
X34719291Y-57707551D01*
X34687594Y-57667637D01*
X34643554Y-57647624D01*
X34595531Y-57649572D01*
X34551886Y-57675543D01*
X34533420Y-57696635D01*
X34522663Y-57723619D01*
X34534178Y-57747634D01*
X34569981Y-57771791D01*
X34632090Y-57799199D01*
X34641515Y-57802985D01*
X34698058Y-57827759D01*
X34746580Y-57852189D01*
X34777451Y-57871486D01*
X34808371Y-57905953D01*
X34828927Y-57960957D01*
X34826744Y-58019983D01*
X34802424Y-58075845D01*
X34756568Y-58121355D01*
X34719438Y-58140727D01*
X34647711Y-58154292D01*
X34607852Y-58152462D01*
X34570953Y-58142568D01*
X34556797Y-58121806D01*
X34562091Y-58087613D01*
X34563631Y-58083092D01*
X34575842Y-58059116D01*
X34596174Y-58050042D01*
X34634908Y-58050649D01*
X34662257Y-58051474D01*
X34694257Y-58044392D01*
X34716182Y-58023219D01*
X34728670Y-57997152D01*
X34730062Y-57969845D01*
X34729998Y-57969685D01*
X34713807Y-57954930D01*
X34679155Y-57933457D01*
X34634321Y-57909458D01*
X34587582Y-57887125D01*
X34547217Y-57870652D01*
X34521504Y-57864229D01*
X34517679Y-57870518D01*
X34512864Y-57900115D01*
X34509566Y-57948447D01*
X34508343Y-58009372D01*
X34508058Y-58051542D01*
X34506718Y-58104653D01*
X34504528Y-58141025D01*
X34501769Y-58154514D01*
X34487344Y-58149981D01*
X34458226Y-58137670D01*
X34421257Y-58120826D01*
X34421257Y-57904721D01*
X34421493Y-57849327D01*
X34423729Y-57765207D01*
X34429423Y-57702800D01*
X34439903Y-57657358D01*
X34456497Y-57624133D01*
X34480531Y-57598378D01*
X34513333Y-57575344D01*
X34555124Y-57556335D01*
X34632287Y-57544914D01*
X34667495Y-57546220D01*
G37*
X34667495Y-57546220D02*
X34698599Y-57554121D01*
X34727559Y-57573817D01*
X34764831Y-57610484D01*
X34788801Y-57636378D01*
X34813770Y-57669997D01*
X34825031Y-57701506D01*
X34827657Y-57741485D01*
X34827657Y-57806917D01*
X34783035Y-57783842D01*
X34747673Y-57755724D01*
X34723451Y-57717848D01*
X34719291Y-57707551D01*
X34687594Y-57667637D01*
X34643554Y-57647624D01*
X34595531Y-57649572D01*
X34551886Y-57675543D01*
X34533420Y-57696635D01*
X34522663Y-57723619D01*
X34534178Y-57747634D01*
X34569981Y-57771791D01*
X34632090Y-57799199D01*
X34641515Y-57802985D01*
X34698058Y-57827759D01*
X34746580Y-57852189D01*
X34777451Y-57871486D01*
X34808371Y-57905953D01*
X34828927Y-57960957D01*
X34826744Y-58019983D01*
X34802424Y-58075845D01*
X34756568Y-58121355D01*
X34719438Y-58140727D01*
X34647711Y-58154292D01*
X34607852Y-58152462D01*
X34570953Y-58142568D01*
X34556797Y-58121806D01*
X34562091Y-58087613D01*
X34563631Y-58083092D01*
X34575842Y-58059116D01*
X34596174Y-58050042D01*
X34634908Y-58050649D01*
X34662257Y-58051474D01*
X34694257Y-58044392D01*
X34716182Y-58023219D01*
X34728670Y-57997152D01*
X34730062Y-57969845D01*
X34729998Y-57969685D01*
X34713807Y-57954930D01*
X34679155Y-57933457D01*
X34634321Y-57909458D01*
X34587582Y-57887125D01*
X34547217Y-57870652D01*
X34521504Y-57864229D01*
X34517679Y-57870518D01*
X34512864Y-57900115D01*
X34509566Y-57948447D01*
X34508343Y-58009372D01*
X34508058Y-58051542D01*
X34506718Y-58104653D01*
X34504528Y-58141025D01*
X34501769Y-58154514D01*
X34487344Y-58149981D01*
X34458226Y-58137670D01*
X34421257Y-58120826D01*
X34421257Y-57904721D01*
X34421493Y-57849327D01*
X34423729Y-57765207D01*
X34429423Y-57702800D01*
X34439903Y-57657358D01*
X34456497Y-57624133D01*
X34480531Y-57598378D01*
X34513333Y-57575344D01*
X34555124Y-57556335D01*
X34632287Y-57544914D01*
X34667495Y-57546220D01*
X38531697Y-57531239D02*
X38474473Y-57569735D01*
X38474473Y-57569735D02*
X38430251Y-57625335D01*
X38430251Y-57625335D02*
X38403833Y-57696086D01*
X38403833Y-57696086D02*
X38398490Y-57748162D01*
X38398490Y-57748162D02*
X38399097Y-57769893D01*
X38399097Y-57769893D02*
X38404178Y-57786531D01*
X38404178Y-57786531D02*
X38418145Y-57801437D01*
X38418145Y-57801437D02*
X38445411Y-57817973D01*
X38445411Y-57817973D02*
X38490388Y-57839498D01*
X38490388Y-57839498D02*
X38557489Y-57869374D01*
X38557489Y-57869374D02*
X38557829Y-57869524D01*
X38557829Y-57869524D02*
X38619593Y-57897813D01*
X38619593Y-57897813D02*
X38670241Y-57922933D01*
X38670241Y-57922933D02*
X38704596Y-57942179D01*
X38704596Y-57942179D02*
X38717482Y-57952848D01*
X38717482Y-57952848D02*
X38717486Y-57952934D01*
X38717486Y-57952934D02*
X38706128Y-57976166D01*
X38706128Y-57976166D02*
X38679569Y-58001774D01*
X38679569Y-58001774D02*
X38649077Y-58020221D01*
X38649077Y-58020221D02*
X38633630Y-58023886D01*
X38633630Y-58023886D02*
X38591485Y-58011212D01*
X38591485Y-58011212D02*
X38555192Y-57979471D01*
X38555192Y-57979471D02*
X38537483Y-57944572D01*
X38537483Y-57944572D02*
X38520448Y-57918845D01*
X38520448Y-57918845D02*
X38487078Y-57889546D01*
X38487078Y-57889546D02*
X38447851Y-57864235D01*
X38447851Y-57864235D02*
X38413244Y-57850471D01*
X38413244Y-57850471D02*
X38406007Y-57849714D01*
X38406007Y-57849714D02*
X38397861Y-57862160D01*
X38397861Y-57862160D02*
X38397370Y-57893972D01*
X38397370Y-57893972D02*
X38403357Y-57936866D01*
X38403357Y-57936866D02*
X38414643Y-57982558D01*
X38414643Y-57982558D02*
X38430050Y-58022761D01*
X38430050Y-58022761D02*
X38430829Y-58024322D01*
X38430829Y-58024322D02*
X38477196Y-58089062D01*
X38477196Y-58089062D02*
X38537289Y-58133097D01*
X38537289Y-58133097D02*
X38605535Y-58154711D01*
X38605535Y-58154711D02*
X38676362Y-58152185D01*
X38676362Y-58152185D02*
X38744196Y-58123804D01*
X38744196Y-58123804D02*
X38747212Y-58121808D01*
X38747212Y-58121808D02*
X38800573Y-58073448D01*
X38800573Y-58073448D02*
X38835660Y-58010352D01*
X38835660Y-58010352D02*
X38855078Y-57927387D01*
X38855078Y-57927387D02*
X38857684Y-57904078D01*
X38857684Y-57904078D02*
X38862299Y-57794055D01*
X38862299Y-57794055D02*
X38856767Y-57742748D01*
X38856767Y-57742748D02*
X38717486Y-57742748D01*
X38717486Y-57742748D02*
X38715676Y-57774753D01*
X38715676Y-57774753D02*
X38705778Y-57784093D01*
X38705778Y-57784093D02*
X38681102Y-57777105D01*
X38681102Y-57777105D02*
X38642205Y-57760587D01*
X38642205Y-57760587D02*
X38598725Y-57739881D01*
X38598725Y-57739881D02*
X38597644Y-57739333D01*
X38597644Y-57739333D02*
X38560791Y-57719949D01*
X38560791Y-57719949D02*
X38546000Y-57707013D01*
X38546000Y-57707013D02*
X38549647Y-57693451D01*
X38549647Y-57693451D02*
X38565005Y-57675632D01*
X38565005Y-57675632D02*
X38604077Y-57649845D01*
X38604077Y-57649845D02*
X38646154Y-57647950D01*
X38646154Y-57647950D02*
X38683897Y-57666717D01*
X38683897Y-57666717D02*
X38709966Y-57702915D01*
X38709966Y-57702915D02*
X38717486Y-57742748D01*
X38717486Y-57742748D02*
X38856767Y-57742748D01*
X38856767Y-57742748D02*
X38852806Y-57706027D01*
X38852806Y-57706027D02*
X38828450Y-57636212D01*
X38828450Y-57636212D02*
X38794544Y-57587302D01*
X38794544Y-57587302D02*
X38733347Y-57537878D01*
X38733347Y-57537878D02*
X38665937Y-57513359D01*
X38665937Y-57513359D02*
X38597120Y-57511797D01*
X38597120Y-57511797D02*
X38531697Y-57531239D01*
X38531697Y-57531239D02*
X38531697Y-57531239D01*
G36*
X38857684Y-57904078D02*
G01*
X38855078Y-57927387D01*
X38835660Y-58010352D01*
X38800573Y-58073448D01*
X38747212Y-58121808D01*
X38744196Y-58123804D01*
X38676362Y-58152185D01*
X38605535Y-58154711D01*
X38537289Y-58133097D01*
X38477196Y-58089062D01*
X38430829Y-58024322D01*
X38430050Y-58022761D01*
X38414643Y-57982558D01*
X38403357Y-57936866D01*
X38397370Y-57893972D01*
X38397861Y-57862160D01*
X38406007Y-57849714D01*
X38413244Y-57850471D01*
X38447851Y-57864235D01*
X38487078Y-57889546D01*
X38520448Y-57918845D01*
X38537483Y-57944572D01*
X38555192Y-57979471D01*
X38591485Y-58011212D01*
X38633630Y-58023886D01*
X38649077Y-58020221D01*
X38679569Y-58001774D01*
X38706128Y-57976166D01*
X38717486Y-57952934D01*
X38717482Y-57952848D01*
X38704596Y-57942179D01*
X38670241Y-57922933D01*
X38619593Y-57897813D01*
X38557829Y-57869524D01*
X38557489Y-57869374D01*
X38490388Y-57839498D01*
X38445411Y-57817973D01*
X38418145Y-57801437D01*
X38404178Y-57786531D01*
X38399097Y-57769893D01*
X38398490Y-57748162D01*
X38402712Y-57707013D01*
X38546000Y-57707013D01*
X38560791Y-57719949D01*
X38597644Y-57739333D01*
X38598725Y-57739881D01*
X38642205Y-57760587D01*
X38681102Y-57777105D01*
X38705778Y-57784093D01*
X38715676Y-57774753D01*
X38717486Y-57742748D01*
X38709966Y-57702915D01*
X38683897Y-57666717D01*
X38646154Y-57647950D01*
X38604077Y-57649845D01*
X38565005Y-57675632D01*
X38549647Y-57693451D01*
X38546000Y-57707013D01*
X38402712Y-57707013D01*
X38403833Y-57696086D01*
X38430251Y-57625335D01*
X38474473Y-57569735D01*
X38531697Y-57531239D01*
X38597120Y-57511797D01*
X38665937Y-57513359D01*
X38733347Y-57537878D01*
X38794544Y-57587302D01*
X38828450Y-57636212D01*
X38852806Y-57706027D01*
X38856767Y-57742748D01*
X38862299Y-57794055D01*
X38857684Y-57904078D01*
G37*
X38857684Y-57904078D02*
X38855078Y-57927387D01*
X38835660Y-58010352D01*
X38800573Y-58073448D01*
X38747212Y-58121808D01*
X38744196Y-58123804D01*
X38676362Y-58152185D01*
X38605535Y-58154711D01*
X38537289Y-58133097D01*
X38477196Y-58089062D01*
X38430829Y-58024322D01*
X38430050Y-58022761D01*
X38414643Y-57982558D01*
X38403357Y-57936866D01*
X38397370Y-57893972D01*
X38397861Y-57862160D01*
X38406007Y-57849714D01*
X38413244Y-57850471D01*
X38447851Y-57864235D01*
X38487078Y-57889546D01*
X38520448Y-57918845D01*
X38537483Y-57944572D01*
X38555192Y-57979471D01*
X38591485Y-58011212D01*
X38633630Y-58023886D01*
X38649077Y-58020221D01*
X38679569Y-58001774D01*
X38706128Y-57976166D01*
X38717486Y-57952934D01*
X38717482Y-57952848D01*
X38704596Y-57942179D01*
X38670241Y-57922933D01*
X38619593Y-57897813D01*
X38557829Y-57869524D01*
X38557489Y-57869374D01*
X38490388Y-57839498D01*
X38445411Y-57817973D01*
X38418145Y-57801437D01*
X38404178Y-57786531D01*
X38399097Y-57769893D01*
X38398490Y-57748162D01*
X38402712Y-57707013D01*
X38546000Y-57707013D01*
X38560791Y-57719949D01*
X38597644Y-57739333D01*
X38598725Y-57739881D01*
X38642205Y-57760587D01*
X38681102Y-57777105D01*
X38705778Y-57784093D01*
X38715676Y-57774753D01*
X38717486Y-57742748D01*
X38709966Y-57702915D01*
X38683897Y-57666717D01*
X38646154Y-57647950D01*
X38604077Y-57649845D01*
X38565005Y-57675632D01*
X38549647Y-57693451D01*
X38546000Y-57707013D01*
X38402712Y-57707013D01*
X38403833Y-57696086D01*
X38430251Y-57625335D01*
X38474473Y-57569735D01*
X38531697Y-57531239D01*
X38597120Y-57511797D01*
X38665937Y-57513359D01*
X38733347Y-57537878D01*
X38794544Y-57587302D01*
X38828450Y-57636212D01*
X38852806Y-57706027D01*
X38856767Y-57742748D01*
X38862299Y-57794055D01*
X38857684Y-57904078D01*
X36170074Y-57549755D02*
X36104142Y-57574084D01*
X36104142Y-57574084D02*
X36050727Y-57617117D01*
X36050727Y-57617117D02*
X36029836Y-57647409D01*
X36029836Y-57647409D02*
X36007061Y-57702994D01*
X36007061Y-57702994D02*
X36007534Y-57743186D01*
X36007534Y-57743186D02*
X36031438Y-57770217D01*
X36031438Y-57770217D02*
X36040283Y-57774813D01*
X36040283Y-57774813D02*
X36078470Y-57789144D01*
X36078470Y-57789144D02*
X36097972Y-57785472D01*
X36097972Y-57785472D02*
X36104578Y-57761407D01*
X36104578Y-57761407D02*
X36104914Y-57748114D01*
X36104914Y-57748114D02*
X36117008Y-57699210D01*
X36117008Y-57699210D02*
X36148529Y-57664999D01*
X36148529Y-57664999D02*
X36192341Y-57648476D01*
X36192341Y-57648476D02*
X36241305Y-57652634D01*
X36241305Y-57652634D02*
X36281106Y-57674227D01*
X36281106Y-57674227D02*
X36294550Y-57686544D01*
X36294550Y-57686544D02*
X36304079Y-57701487D01*
X36304079Y-57701487D02*
X36310515Y-57724075D01*
X36310515Y-57724075D02*
X36314683Y-57759328D01*
X36314683Y-57759328D02*
X36317403Y-57812266D01*
X36317403Y-57812266D02*
X36319498Y-57887907D01*
X36319498Y-57887907D02*
X36320040Y-57911857D01*
X36320040Y-57911857D02*
X36322019Y-57993790D01*
X36322019Y-57993790D02*
X36324269Y-58051455D01*
X36324269Y-58051455D02*
X36327643Y-58089608D01*
X36327643Y-58089608D02*
X36332994Y-58113004D01*
X36332994Y-58113004D02*
X36341176Y-58126398D01*
X36341176Y-58126398D02*
X36353041Y-58134545D01*
X36353041Y-58134545D02*
X36360638Y-58138144D01*
X36360638Y-58138144D02*
X36392898Y-58150452D01*
X36392898Y-58150452D02*
X36411889Y-58154514D01*
X36411889Y-58154514D02*
X36418164Y-58140948D01*
X36418164Y-58140948D02*
X36421994Y-58099934D01*
X36421994Y-58099934D02*
X36423400Y-58030999D01*
X36423400Y-58030999D02*
X36422402Y-57933669D01*
X36422402Y-57933669D02*
X36422092Y-57918657D01*
X36422092Y-57918657D02*
X36419899Y-57829859D01*
X36419899Y-57829859D02*
X36417307Y-57765019D01*
X36417307Y-57765019D02*
X36413618Y-57719067D01*
X36413618Y-57719067D02*
X36408136Y-57686935D01*
X36408136Y-57686935D02*
X36400165Y-57663553D01*
X36400165Y-57663553D02*
X36389007Y-57643852D01*
X36389007Y-57643852D02*
X36383170Y-57635410D01*
X36383170Y-57635410D02*
X36349704Y-57598057D01*
X36349704Y-57598057D02*
X36312273Y-57569003D01*
X36312273Y-57569003D02*
X36307691Y-57566467D01*
X36307691Y-57566467D02*
X36240574Y-57546443D01*
X36240574Y-57546443D02*
X36170074Y-57549755D01*
X36170074Y-57549755D02*
X36170074Y-57549755D01*
G36*
X36307691Y-57566467D02*
G01*
X36312273Y-57569003D01*
X36349704Y-57598057D01*
X36383170Y-57635410D01*
X36389007Y-57643852D01*
X36400165Y-57663553D01*
X36408136Y-57686935D01*
X36413618Y-57719067D01*
X36417307Y-57765019D01*
X36419899Y-57829859D01*
X36422092Y-57918657D01*
X36422402Y-57933669D01*
X36423400Y-58030999D01*
X36421994Y-58099934D01*
X36418164Y-58140948D01*
X36411889Y-58154514D01*
X36392898Y-58150452D01*
X36360638Y-58138144D01*
X36353041Y-58134545D01*
X36341176Y-58126398D01*
X36332994Y-58113004D01*
X36327643Y-58089608D01*
X36324269Y-58051455D01*
X36322019Y-57993790D01*
X36320040Y-57911857D01*
X36319498Y-57887907D01*
X36317403Y-57812266D01*
X36314683Y-57759328D01*
X36310515Y-57724075D01*
X36304079Y-57701487D01*
X36294550Y-57686544D01*
X36281106Y-57674227D01*
X36241305Y-57652634D01*
X36192341Y-57648476D01*
X36148529Y-57664999D01*
X36117008Y-57699210D01*
X36104914Y-57748114D01*
X36104578Y-57761407D01*
X36097972Y-57785472D01*
X36078470Y-57789144D01*
X36040283Y-57774813D01*
X36031438Y-57770217D01*
X36007534Y-57743186D01*
X36007061Y-57702994D01*
X36029836Y-57647409D01*
X36050727Y-57617117D01*
X36104142Y-57574084D01*
X36170074Y-57549755D01*
X36240574Y-57546443D01*
X36307691Y-57566467D01*
G37*
X36307691Y-57566467D02*
X36312273Y-57569003D01*
X36349704Y-57598057D01*
X36383170Y-57635410D01*
X36389007Y-57643852D01*
X36400165Y-57663553D01*
X36408136Y-57686935D01*
X36413618Y-57719067D01*
X36417307Y-57765019D01*
X36419899Y-57829859D01*
X36422092Y-57918657D01*
X36422402Y-57933669D01*
X36423400Y-58030999D01*
X36421994Y-58099934D01*
X36418164Y-58140948D01*
X36411889Y-58154514D01*
X36392898Y-58150452D01*
X36360638Y-58138144D01*
X36353041Y-58134545D01*
X36341176Y-58126398D01*
X36332994Y-58113004D01*
X36327643Y-58089608D01*
X36324269Y-58051455D01*
X36322019Y-57993790D01*
X36320040Y-57911857D01*
X36319498Y-57887907D01*
X36317403Y-57812266D01*
X36314683Y-57759328D01*
X36310515Y-57724075D01*
X36304079Y-57701487D01*
X36294550Y-57686544D01*
X36281106Y-57674227D01*
X36241305Y-57652634D01*
X36192341Y-57648476D01*
X36148529Y-57664999D01*
X36117008Y-57699210D01*
X36104914Y-57748114D01*
X36104578Y-57761407D01*
X36097972Y-57785472D01*
X36078470Y-57789144D01*
X36040283Y-57774813D01*
X36031438Y-57770217D01*
X36007534Y-57743186D01*
X36007061Y-57702994D01*
X36029836Y-57647409D01*
X36050727Y-57617117D01*
X36104142Y-57574084D01*
X36170074Y-57549755D01*
X36240574Y-57546443D01*
X36307691Y-57566467D01*
X39100256Y-57519918D02*
X39044799Y-57547568D01*
X39044799Y-57547568D02*
X38995852Y-57598480D01*
X38995852Y-57598480D02*
X38982371Y-57617338D01*
X38982371Y-57617338D02*
X38967686Y-57642015D01*
X38967686Y-57642015D02*
X38958158Y-57668816D01*
X38958158Y-57668816D02*
X38952707Y-57704587D01*
X38952707Y-57704587D02*
X38950253Y-57756169D01*
X38950253Y-57756169D02*
X38949714Y-57824267D01*
X38949714Y-57824267D02*
X38952148Y-57917588D01*
X38952148Y-57917588D02*
X38960606Y-57987657D01*
X38960606Y-57987657D02*
X38976826Y-58039931D01*
X38976826Y-58039931D02*
X39002546Y-58079869D01*
X39002546Y-58079869D02*
X39039503Y-58112929D01*
X39039503Y-58112929D02*
X39042218Y-58114886D01*
X39042218Y-58114886D02*
X39078640Y-58134908D01*
X39078640Y-58134908D02*
X39122498Y-58144815D01*
X39122498Y-58144815D02*
X39178276Y-58147257D01*
X39178276Y-58147257D02*
X39268952Y-58147257D01*
X39268952Y-58147257D02*
X39268990Y-58235283D01*
X39268990Y-58235283D02*
X39269834Y-58284308D01*
X39269834Y-58284308D02*
X39274976Y-58313065D01*
X39274976Y-58313065D02*
X39288413Y-58330311D01*
X39288413Y-58330311D02*
X39314142Y-58344808D01*
X39314142Y-58344808D02*
X39320321Y-58347769D01*
X39320321Y-58347769D02*
X39349236Y-58361648D01*
X39349236Y-58361648D02*
X39371624Y-58370414D01*
X39371624Y-58370414D02*
X39388271Y-58371171D01*
X39388271Y-58371171D02*
X39399964Y-58361023D01*
X39399964Y-58361023D02*
X39407490Y-58337073D01*
X39407490Y-58337073D02*
X39411634Y-58296426D01*
X39411634Y-58296426D02*
X39413185Y-58236186D01*
X39413185Y-58236186D02*
X39412929Y-58153455D01*
X39412929Y-58153455D02*
X39411651Y-58045339D01*
X39411651Y-58045339D02*
X39411252Y-58013000D01*
X39411252Y-58013000D02*
X39409815Y-57901524D01*
X39409815Y-57901524D02*
X39408528Y-57828603D01*
X39408528Y-57828603D02*
X39269029Y-57828603D01*
X39269029Y-57828603D02*
X39268245Y-57890499D01*
X39268245Y-57890499D02*
X39264760Y-57930997D01*
X39264760Y-57930997D02*
X39256876Y-57957708D01*
X39256876Y-57957708D02*
X39242895Y-57978244D01*
X39242895Y-57978244D02*
X39233403Y-57988260D01*
X39233403Y-57988260D02*
X39194596Y-58017567D01*
X39194596Y-58017567D02*
X39160237Y-58019952D01*
X39160237Y-58019952D02*
X39124784Y-57995750D01*
X39124784Y-57995750D02*
X39123886Y-57994857D01*
X39123886Y-57994857D02*
X39109461Y-57976153D01*
X39109461Y-57976153D02*
X39100687Y-57950732D01*
X39100687Y-57950732D02*
X39096261Y-57911584D01*
X39096261Y-57911584D02*
X39094882Y-57851697D01*
X39094882Y-57851697D02*
X39094857Y-57838430D01*
X39094857Y-57838430D02*
X39098188Y-57755901D01*
X39098188Y-57755901D02*
X39109031Y-57698691D01*
X39109031Y-57698691D02*
X39128660Y-57663766D01*
X39128660Y-57663766D02*
X39158350Y-57648094D01*
X39158350Y-57648094D02*
X39175509Y-57646514D01*
X39175509Y-57646514D02*
X39216234Y-57653926D01*
X39216234Y-57653926D02*
X39244168Y-57678330D01*
X39244168Y-57678330D02*
X39260983Y-57722980D01*
X39260983Y-57722980D02*
X39268350Y-57791130D01*
X39268350Y-57791130D02*
X39269029Y-57828603D01*
X39269029Y-57828603D02*
X39408528Y-57828603D01*
X39408528Y-57828603D02*
X39408292Y-57815245D01*
X39408292Y-57815245D02*
X39406323Y-57750333D01*
X39406323Y-57750333D02*
X39403550Y-57702958D01*
X39403550Y-57702958D02*
X39399612Y-57669290D01*
X39399612Y-57669290D02*
X39394151Y-57645498D01*
X39394151Y-57645498D02*
X39386808Y-57627753D01*
X39386808Y-57627753D02*
X39377223Y-57612224D01*
X39377223Y-57612224D02*
X39373113Y-57606381D01*
X39373113Y-57606381D02*
X39318595Y-57551185D01*
X39318595Y-57551185D02*
X39249664Y-57519890D01*
X39249664Y-57519890D02*
X39169928Y-57511165D01*
X39169928Y-57511165D02*
X39100256Y-57519918D01*
X39100256Y-57519918D02*
X39100256Y-57519918D01*
G36*
X39411252Y-58013000D02*
G01*
X39411651Y-58045339D01*
X39412929Y-58153455D01*
X39413185Y-58236186D01*
X39411634Y-58296426D01*
X39407490Y-58337073D01*
X39399964Y-58361023D01*
X39388271Y-58371171D01*
X39371624Y-58370414D01*
X39349236Y-58361648D01*
X39320321Y-58347769D01*
X39314142Y-58344808D01*
X39288413Y-58330311D01*
X39274976Y-58313065D01*
X39269834Y-58284308D01*
X39268990Y-58235283D01*
X39268952Y-58147257D01*
X39178276Y-58147257D01*
X39122498Y-58144815D01*
X39078640Y-58134908D01*
X39042218Y-58114886D01*
X39039503Y-58112929D01*
X39002546Y-58079869D01*
X38976826Y-58039931D01*
X38960606Y-57987657D01*
X38952148Y-57917588D01*
X38950083Y-57838430D01*
X39094857Y-57838430D01*
X39094882Y-57851697D01*
X39096261Y-57911584D01*
X39100687Y-57950732D01*
X39109461Y-57976153D01*
X39123886Y-57994857D01*
X39124784Y-57995750D01*
X39160237Y-58019952D01*
X39194596Y-58017567D01*
X39233403Y-57988260D01*
X39242895Y-57978244D01*
X39256876Y-57957708D01*
X39264760Y-57930997D01*
X39268245Y-57890499D01*
X39269029Y-57828603D01*
X39268350Y-57791130D01*
X39260983Y-57722980D01*
X39244168Y-57678330D01*
X39216234Y-57653926D01*
X39175509Y-57646514D01*
X39158350Y-57648094D01*
X39128660Y-57663766D01*
X39109031Y-57698691D01*
X39098188Y-57755901D01*
X39094857Y-57838430D01*
X38950083Y-57838430D01*
X38949714Y-57824267D01*
X38950253Y-57756169D01*
X38952707Y-57704587D01*
X38958158Y-57668816D01*
X38967686Y-57642015D01*
X38982371Y-57617338D01*
X38995852Y-57598480D01*
X39044799Y-57547568D01*
X39100256Y-57519918D01*
X39169928Y-57511165D01*
X39249664Y-57519890D01*
X39318595Y-57551185D01*
X39373113Y-57606381D01*
X39377223Y-57612224D01*
X39386808Y-57627753D01*
X39394151Y-57645498D01*
X39399612Y-57669290D01*
X39403550Y-57702958D01*
X39406323Y-57750333D01*
X39408292Y-57815245D01*
X39408528Y-57828603D01*
X39409815Y-57901524D01*
X39411252Y-58013000D01*
G37*
X39411252Y-58013000D02*
X39411651Y-58045339D01*
X39412929Y-58153455D01*
X39413185Y-58236186D01*
X39411634Y-58296426D01*
X39407490Y-58337073D01*
X39399964Y-58361023D01*
X39388271Y-58371171D01*
X39371624Y-58370414D01*
X39349236Y-58361648D01*
X39320321Y-58347769D01*
X39314142Y-58344808D01*
X39288413Y-58330311D01*
X39274976Y-58313065D01*
X39269834Y-58284308D01*
X39268990Y-58235283D01*
X39268952Y-58147257D01*
X39178276Y-58147257D01*
X39122498Y-58144815D01*
X39078640Y-58134908D01*
X39042218Y-58114886D01*
X39039503Y-58112929D01*
X39002546Y-58079869D01*
X38976826Y-58039931D01*
X38960606Y-57987657D01*
X38952148Y-57917588D01*
X38950083Y-57838430D01*
X39094857Y-57838430D01*
X39094882Y-57851697D01*
X39096261Y-57911584D01*
X39100687Y-57950732D01*
X39109461Y-57976153D01*
X39123886Y-57994857D01*
X39124784Y-57995750D01*
X39160237Y-58019952D01*
X39194596Y-58017567D01*
X39233403Y-57988260D01*
X39242895Y-57978244D01*
X39256876Y-57957708D01*
X39264760Y-57930997D01*
X39268245Y-57890499D01*
X39269029Y-57828603D01*
X39268350Y-57791130D01*
X39260983Y-57722980D01*
X39244168Y-57678330D01*
X39216234Y-57653926D01*
X39175509Y-57646514D01*
X39158350Y-57648094D01*
X39128660Y-57663766D01*
X39109031Y-57698691D01*
X39098188Y-57755901D01*
X39094857Y-57838430D01*
X38950083Y-57838430D01*
X38949714Y-57824267D01*
X38950253Y-57756169D01*
X38952707Y-57704587D01*
X38958158Y-57668816D01*
X38967686Y-57642015D01*
X38982371Y-57617338D01*
X38995852Y-57598480D01*
X39044799Y-57547568D01*
X39100256Y-57519918D01*
X39169928Y-57511165D01*
X39249664Y-57519890D01*
X39318595Y-57551185D01*
X39373113Y-57606381D01*
X39377223Y-57612224D01*
X39386808Y-57627753D01*
X39394151Y-57645498D01*
X39399612Y-57669290D01*
X39403550Y-57702958D01*
X39406323Y-57750333D01*
X39408292Y-57815245D01*
X39408528Y-57828603D01*
X39409815Y-57901524D01*
X39411252Y-58013000D01*
D14*
G04 #@! TO.C,C1*
X60661252Y-76065000D02*
X60138748Y-76065000D01*
X60661252Y-77535000D02*
X60138748Y-77535000D01*
G04 #@! TO.C,R5*
X91154724Y-71277500D02*
X90645276Y-71277500D01*
X91154724Y-72322500D02*
X90645276Y-72322500D01*
D12*
G04 #@! TO.C,U1*
X78850000Y-72645000D02*
X78850000Y-72850000D01*
X78850000Y-78155000D02*
X78850000Y-77855000D01*
X78850000Y-78155000D02*
X73350000Y-78155000D01*
X78850000Y-72645000D02*
X73350000Y-72645000D01*
X73350000Y-78155000D02*
X73350000Y-77855000D01*
X78850000Y-72850000D02*
X80600000Y-72850000D01*
X73350000Y-72645000D02*
X73350000Y-72945000D01*
D14*
G04 #@! TO.C,D1*
X71335000Y-87077500D02*
X71335000Y-89537500D01*
X71335000Y-89537500D02*
X69865000Y-89537500D01*
X69865000Y-89537500D02*
X69865000Y-87077500D01*
G04 #@! TO.C,R4*
X82277500Y-88177224D02*
X82277500Y-87667776D01*
X83322500Y-88177224D02*
X83322500Y-87667776D01*
G04 #@! TO.C,D4*
X99536396Y-87694041D02*
X97514071Y-85671716D01*
X100894041Y-86336396D02*
X99536396Y-87694041D01*
X98871716Y-84314071D02*
X100894041Y-86336396D01*
G04 #@! TO.C,D3*
X101420285Y-80915153D02*
X104291139Y-83786006D01*
X104291139Y-83786006D02*
X102686006Y-85391139D01*
X102686006Y-85391139D02*
X99815153Y-82520285D01*
G04 #@! TO.C,D2*
X80135000Y-87077500D02*
X80135000Y-89537500D01*
X78665000Y-89537500D02*
X78665000Y-87077500D01*
X80135000Y-89537500D02*
X78665000Y-89537500D01*
G04 #@! TO.C,R3*
X73277500Y-88177224D02*
X73277500Y-87667776D01*
X74322500Y-88177224D02*
X74322500Y-87667776D01*
G04 #@! TO.C,D5*
X104671716Y-78714071D02*
X106694041Y-80736396D01*
X106694041Y-80736396D02*
X105336396Y-82094041D01*
X105336396Y-82094041D02*
X103314071Y-80071716D01*
G04 #@! TO.C,R1*
X90645276Y-74377500D02*
X91154724Y-74377500D01*
X90645276Y-75422500D02*
X91154724Y-75422500D01*
G04 #@! TO.C,R2*
X90645276Y-77277500D02*
X91154724Y-77277500D01*
X90645276Y-78322500D02*
X91154724Y-78322500D01*
G04 #@! TO.C,C2*
X60546267Y-73190000D02*
X60253733Y-73190000D01*
X60546267Y-74210000D02*
X60253733Y-74210000D01*
G04 #@! TD*
M02*
