G04 #@! TF.GenerationSoftware,KiCad,Pcbnew,(6.0.1)*
G04 #@! TF.CreationDate,2023-12-15T21:36:30+05:30*
G04 #@! TF.ProjectId,Business card,42757369-6e65-4737-9320-636172642e6b,rev?*
G04 #@! TF.SameCoordinates,Original*
G04 #@! TF.FileFunction,Soldermask,Bot*
G04 #@! TF.FilePolarity,Negative*
%FSLAX46Y46*%
G04 Gerber Fmt 4.6, Leading zero omitted, Abs format (unit mm)*
G04 Created by KiCad (PCBNEW (6.0.1)) date 2023-12-15 21:36:30*
%MOMM*%
%LPD*%
G01*
G04 APERTURE LIST*
G04 Aperture macros list*
%AMRoundRect*
0 Rectangle with rounded corners*
0 $1 Rounding radius*
0 $2 $3 $4 $5 $6 $7 $8 $9 X,Y pos of 4 corners*
0 Add a 4 corners polygon primitive as box body*
4,1,4,$2,$3,$4,$5,$6,$7,$8,$9,$2,$3,0*
0 Add four circle primitives for the rounded corners*
1,1,$1+$1,$2,$3*
1,1,$1+$1,$4,$5*
1,1,$1+$1,$6,$7*
1,1,$1+$1,$8,$9*
0 Add four rect primitives between the rounded corners*
20,1,$1+$1,$2,$3,$4,$5,0*
20,1,$1+$1,$4,$5,$6,$7,0*
20,1,$1+$1,$6,$7,$8,$9,0*
20,1,$1+$1,$8,$9,$2,$3,0*%
G04 Aperture macros list end*
%ADD10C,0.300000*%
%ADD11RoundRect,0.250000X0.337500X0.475000X-0.337500X0.475000X-0.337500X-0.475000X0.337500X-0.475000X0*%
%ADD12RoundRect,0.237500X0.250000X0.237500X-0.250000X0.237500X-0.250000X-0.237500X0.250000X-0.237500X0*%
%ADD13R,1.700000X0.650000*%
%ADD14RoundRect,0.237500X0.237500X-0.287500X0.237500X0.287500X-0.237500X0.287500X-0.237500X-0.287500X0*%
%ADD15RoundRect,0.237500X0.237500X-0.250000X0.237500X0.250000X-0.237500X0.250000X-0.237500X-0.250000X0*%
%ADD16RoundRect,0.250000X0.548008X0.088388X0.088388X0.548008X-0.548008X-0.088388X-0.088388X-0.548008X0*%
%ADD17RoundRect,0.250001X0.768977X0.114905X0.114905X0.768977X-0.768977X-0.114905X-0.114905X-0.768977X0*%
%ADD18RoundRect,0.237500X-0.250000X-0.237500X0.250000X-0.237500X0.250000X0.237500X-0.250000X0.237500X0*%
%ADD19RoundRect,0.237500X0.300000X0.237500X-0.300000X0.237500X-0.300000X-0.237500X0.300000X-0.237500X0*%
G04 APERTURE END LIST*
D10*
X43092857Y-90778571D02*
X43092857Y-89278571D01*
X42592857Y-90350000D01*
X42092857Y-89278571D01*
X42092857Y-90778571D01*
X40735714Y-90778571D02*
X40735714Y-89992857D01*
X40807142Y-89850000D01*
X40950000Y-89778571D01*
X41235714Y-89778571D01*
X41378571Y-89850000D01*
X40735714Y-90707142D02*
X40878571Y-90778571D01*
X41235714Y-90778571D01*
X41378571Y-90707142D01*
X41450000Y-90564285D01*
X41450000Y-90421428D01*
X41378571Y-90278571D01*
X41235714Y-90207142D01*
X40878571Y-90207142D01*
X40735714Y-90135714D01*
X39378571Y-90778571D02*
X39378571Y-89278571D01*
X39378571Y-90707142D02*
X39521428Y-90778571D01*
X39807142Y-90778571D01*
X39950000Y-90707142D01*
X40021428Y-90635714D01*
X40092857Y-90492857D01*
X40092857Y-90064285D01*
X40021428Y-89921428D01*
X39950000Y-89850000D01*
X39807142Y-89778571D01*
X39521428Y-89778571D01*
X39378571Y-89850000D01*
X38092857Y-90707142D02*
X38235714Y-90778571D01*
X38521428Y-90778571D01*
X38664285Y-90707142D01*
X38735714Y-90564285D01*
X38735714Y-89992857D01*
X38664285Y-89850000D01*
X38521428Y-89778571D01*
X38235714Y-89778571D01*
X38092857Y-89850000D01*
X38021428Y-89992857D01*
X38021428Y-90135714D01*
X38735714Y-90278571D01*
X35735714Y-89992857D02*
X35521428Y-90064285D01*
X35450000Y-90135714D01*
X35378571Y-90278571D01*
X35378571Y-90492857D01*
X35450000Y-90635714D01*
X35521428Y-90707142D01*
X35664285Y-90778571D01*
X36235714Y-90778571D01*
X36235714Y-89278571D01*
X35735714Y-89278571D01*
X35592857Y-89350000D01*
X35521428Y-89421428D01*
X35450000Y-89564285D01*
X35450000Y-89707142D01*
X35521428Y-89850000D01*
X35592857Y-89921428D01*
X35735714Y-89992857D01*
X36235714Y-89992857D01*
X34878571Y-89778571D02*
X34521428Y-90778571D01*
X34164285Y-89778571D02*
X34521428Y-90778571D01*
X34664285Y-91135714D01*
X34735714Y-91207142D01*
X34878571Y-91278571D01*
X50585714Y-92404761D02*
X49919047Y-94404761D01*
X49252380Y-92404761D01*
X48585714Y-94404761D02*
X48585714Y-93071428D01*
X48585714Y-92404761D02*
X48680952Y-92500000D01*
X48585714Y-92595238D01*
X48490476Y-92500000D01*
X48585714Y-92404761D01*
X48585714Y-92595238D01*
X47728571Y-94309523D02*
X47538095Y-94404761D01*
X47157142Y-94404761D01*
X46966666Y-94309523D01*
X46871428Y-94119047D01*
X46871428Y-94023809D01*
X46966666Y-93833333D01*
X47157142Y-93738095D01*
X47442857Y-93738095D01*
X47633333Y-93642857D01*
X47728571Y-93452380D01*
X47728571Y-93357142D01*
X47633333Y-93166666D01*
X47442857Y-93071428D01*
X47157142Y-93071428D01*
X46966666Y-93166666D01*
X46014285Y-94404761D02*
X46014285Y-92404761D01*
X45157142Y-94404761D02*
X45157142Y-93357142D01*
X45252380Y-93166666D01*
X45442857Y-93071428D01*
X45728571Y-93071428D01*
X45919047Y-93166666D01*
X46014285Y-93261904D01*
X43347619Y-94404761D02*
X43347619Y-93357142D01*
X43442857Y-93166666D01*
X43633333Y-93071428D01*
X44014285Y-93071428D01*
X44204761Y-93166666D01*
X43347619Y-94309523D02*
X43538095Y-94404761D01*
X44014285Y-94404761D01*
X44204761Y-94309523D01*
X44300000Y-94119047D01*
X44300000Y-93928571D01*
X44204761Y-93738095D01*
X44014285Y-93642857D01*
X43538095Y-93642857D01*
X43347619Y-93547619D01*
X42109523Y-94404761D02*
X42300000Y-94309523D01*
X42395238Y-94119047D01*
X42395238Y-92404761D01*
X39919047Y-94309523D02*
X39633333Y-94404761D01*
X39157142Y-94404761D01*
X38966666Y-94309523D01*
X38871428Y-94214285D01*
X38776190Y-94023809D01*
X38776190Y-93833333D01*
X38871428Y-93642857D01*
X38966666Y-93547619D01*
X39157142Y-93452380D01*
X39538095Y-93357142D01*
X39728571Y-93261904D01*
X39823809Y-93166666D01*
X39919047Y-92976190D01*
X39919047Y-92785714D01*
X39823809Y-92595238D01*
X39728571Y-92500000D01*
X39538095Y-92404761D01*
X39061904Y-92404761D01*
X38776190Y-92500000D01*
X37633333Y-94404761D02*
X37823809Y-94309523D01*
X37919047Y-94214285D01*
X38014285Y-94023809D01*
X38014285Y-93452380D01*
X37919047Y-93261904D01*
X37823809Y-93166666D01*
X37633333Y-93071428D01*
X37347619Y-93071428D01*
X37157142Y-93166666D01*
X37061904Y-93261904D01*
X36966666Y-93452380D01*
X36966666Y-94023809D01*
X37061904Y-94214285D01*
X37157142Y-94309523D01*
X37347619Y-94404761D01*
X37633333Y-94404761D01*
X36109523Y-93071428D02*
X36109523Y-94404761D01*
X36109523Y-93261904D02*
X36014285Y-93166666D01*
X35823809Y-93071428D01*
X35538095Y-93071428D01*
X35347619Y-93166666D01*
X35252380Y-93357142D01*
X35252380Y-94404761D01*
X34300000Y-94404761D02*
X34300000Y-93071428D01*
X34300000Y-92404761D02*
X34395238Y-92500000D01*
X34300000Y-92595238D01*
X34204761Y-92500000D01*
X34300000Y-92404761D01*
X34300000Y-92595238D01*
D11*
G04 #@! TO.C,C1*
X61437500Y-76800000D03*
X59362500Y-76800000D03*
G04 #@! TD*
D12*
G04 #@! TO.C,R5*
X91812500Y-71800000D03*
X89987500Y-71800000D03*
G04 #@! TD*
D13*
G04 #@! TO.C,U1*
X79750000Y-73495000D03*
X79750000Y-74765000D03*
X79750000Y-76035000D03*
X79750000Y-77305000D03*
X72450000Y-77305000D03*
X72450000Y-76035000D03*
X72450000Y-74765000D03*
X72450000Y-73495000D03*
G04 #@! TD*
D14*
G04 #@! TO.C,D1*
X70600000Y-88752500D03*
X70600000Y-87002500D03*
G04 #@! TD*
D15*
G04 #@! TO.C,R4*
X82800000Y-88835000D03*
X82800000Y-87010000D03*
G04 #@! TD*
D16*
G04 #@! TO.C,D4*
X99624784Y-86424784D03*
X98175216Y-84975216D03*
G04 #@! TD*
D17*
G04 #@! TO.C,D3*
X102800911Y-83900911D03*
X100697269Y-81797269D03*
G04 #@! TD*
D14*
G04 #@! TO.C,D2*
X79400000Y-88752500D03*
X79400000Y-87002500D03*
G04 #@! TD*
D15*
G04 #@! TO.C,R3*
X73800000Y-88835000D03*
X73800000Y-87010000D03*
G04 #@! TD*
D16*
G04 #@! TO.C,D5*
X105424784Y-80824784D03*
X103975216Y-79375216D03*
G04 #@! TD*
D18*
G04 #@! TO.C,R1*
X89987500Y-74900000D03*
X91812500Y-74900000D03*
G04 #@! TD*
G04 #@! TO.C,R2*
X89987500Y-77800000D03*
X91812500Y-77800000D03*
G04 #@! TD*
D19*
G04 #@! TO.C,C2*
X61262500Y-73700000D03*
X59537500Y-73700000D03*
G04 #@! TD*
M02*
