G04 #@! TF.GenerationSoftware,KiCad,Pcbnew,(6.0.1)*
G04 #@! TF.CreationDate,2022-02-01T23:45:27+05:30*
G04 #@! TF.ProjectId,Business card,42757369-6e65-4737-9320-636172642e6b,rev?*
G04 #@! TF.SameCoordinates,Original*
G04 #@! TF.FileFunction,Copper,L1,Top*
G04 #@! TF.FilePolarity,Positive*
%FSLAX46Y46*%
G04 Gerber Fmt 4.6, Leading zero omitted, Abs format (unit mm)*
G04 Created by KiCad (PCBNEW (6.0.1)) date 2022-02-01 23:45:27*
%MOMM*%
%LPD*%
G01*
G04 APERTURE LIST*
G04 Aperture macros list*
%AMRotRect*
0 Rectangle, with rotation*
0 The origin of the aperture is its center*
0 $1 length*
0 $2 width*
0 $3 Rotation angle, in degrees counterclockwise*
0 Add horizontal line*
21,1,$1,$2,0,0,$3*%
G04 Aperture macros list end*
G04 #@! TA.AperFunction,ConnectorPad*
%ADD10RotRect,1.900000X8.000000X45.000000*%
G04 #@! TD*
G04 #@! TA.AperFunction,ConnectorPad*
%ADD11RotRect,2.000000X7.500000X45.000000*%
G04 #@! TD*
G04 #@! TA.AperFunction,ViaPad*
%ADD12C,0.800000*%
G04 #@! TD*
G04 #@! TA.AperFunction,Conductor*
%ADD13C,0.250000*%
G04 #@! TD*
G04 #@! TA.AperFunction,Conductor*
%ADD14C,1.000000*%
G04 #@! TD*
G04 APERTURE END LIST*
D10*
G04 #@! TO.P,J2,1,VBUS*
G04 #@! TO.N,Net-(D3-Pad1)*
X114716616Y-90330327D03*
D11*
G04 #@! TO.P,J2,2,D-*
G04 #@! TO.N,Net-(D4-Pad2)*
X112765001Y-91928388D03*
G04 #@! TO.P,J2,3,D+*
G04 #@! TO.N,Net-(D5-Pad2)*
X110926523Y-93766866D03*
D10*
G04 #@! TO.P,J2,4,GND*
G04 #@! TO.N,GND*
X109328462Y-95718481D03*
G04 #@! TD*
D12*
G04 #@! TO.N,GND*
X102100000Y-90900000D03*
G04 #@! TO.N,Net-(D3-Pad1)*
X102800000Y-86500000D03*
X103500000Y-90200000D03*
G04 #@! TO.N,Net-(D4-Pad2)*
X101824500Y-89100000D03*
X105100000Y-87900000D03*
X98200000Y-89100000D03*
G04 #@! TO.N,Net-(D5-Pad2)*
X96000000Y-87900000D03*
X109600000Y-83100000D03*
X106700000Y-77200000D03*
X107700000Y-85100000D03*
X107500000Y-88600000D03*
G04 #@! TD*
D13*
G04 #@! TO.N,Net-(D5-Pad2)*
X99200000Y-84700000D02*
X100000000Y-83900000D01*
D14*
X100000000Y-82300000D02*
X103700000Y-82300000D01*
D13*
X99200000Y-84700000D02*
X99400000Y-84500000D01*
X100000000Y-83900000D02*
X100000000Y-82300000D01*
X96000000Y-87900000D02*
X99200000Y-84700000D01*
D14*
X103700000Y-82300000D02*
X103700000Y-80200000D01*
D13*
X103700000Y-80200000D02*
X106700000Y-77200000D01*
G04 #@! TO.N,GND*
X109118481Y-95718481D02*
X109328462Y-95718481D01*
X104700000Y-91300000D02*
X109118481Y-95718481D01*
X102500000Y-91300000D02*
X104700000Y-91300000D01*
X102100000Y-90900000D02*
X102500000Y-91300000D01*
G04 #@! TO.N,Net-(D3-Pad1)*
X102800000Y-89500000D02*
X103500000Y-90200000D01*
X110886289Y-86500000D02*
X114716616Y-90330327D01*
X102800000Y-86500000D02*
X102800000Y-89500000D01*
X102800000Y-86500000D02*
X110886289Y-86500000D01*
G04 #@! TO.N,Net-(D4-Pad2)*
X108236614Y-87400000D02*
X109618307Y-88781693D01*
X105100000Y-87900000D02*
X105600000Y-87400000D01*
X109618307Y-88781693D02*
X112765001Y-91928388D01*
X109436613Y-88600000D02*
X109618307Y-88781693D01*
X98200000Y-89100000D02*
X101824500Y-89100000D01*
X105600000Y-87400000D02*
X108236614Y-87400000D01*
G04 #@! TO.N,Net-(D5-Pad2)*
X110566866Y-93766866D02*
X110926523Y-93766866D01*
X109600000Y-83100000D02*
X107700000Y-85000000D01*
X107700000Y-85000000D02*
X107700000Y-85100000D01*
X107500000Y-90700000D02*
X110566866Y-93766866D01*
X107500000Y-88600000D02*
X107500000Y-90700000D01*
G04 #@! TD*
G04 #@! TA.AperFunction,NonConductor*
G36*
X118041996Y-51920070D02*
G01*
X118088552Y-51973671D01*
X118100000Y-52026148D01*
X118100000Y-74047177D01*
X118079998Y-74115298D01*
X118062333Y-74137029D01*
X117781795Y-74412812D01*
X112289088Y-79812421D01*
X112226487Y-79845912D01*
X112155717Y-79840242D01*
X112111662Y-79811662D01*
X106700000Y-74400000D01*
X93300000Y-87000000D01*
X93309992Y-87010164D01*
X93309993Y-87010166D01*
X99010259Y-92808712D01*
X99043750Y-92871313D01*
X99038080Y-92942083D01*
X99007302Y-92988284D01*
X92836497Y-98865241D01*
X92773373Y-98897737D01*
X92749600Y-98900000D01*
X33126000Y-98900000D01*
X33057879Y-98879998D01*
X33011386Y-98826342D01*
X33000000Y-98774000D01*
X33000000Y-52125852D01*
X33020002Y-52057731D01*
X33073658Y-52011238D01*
X33125851Y-51999852D01*
X117973853Y-51900148D01*
X118041996Y-51920070D01*
G37*
G04 #@! TD.AperFunction*
M02*
